<svg width="18" height="18" viewBox="0 0 18 18" fill="none" xmlns="http://www.w3.org/2000/svg">
<circle cx="9" cy="9" r="8.25" fill="black" fill-opacity="0.34"/>
<path d="M14.4208 10.8121L14.6476 11.5456C14.2342 11.7322 13.8057 11.8254 13.362 11.8254C12.7318 11.8254 12.2251 11.6414 11.842 11.2734C11.4588 10.9053 11.2672 10.4087 11.2672 9.78357C11.2672 9.14328 11.4512 8.64416 11.8193 8.2862C12.1924 7.9232 12.7066 7.7417 13.362 7.7417C13.8057 7.7417 14.2342 7.83497 14.6476 8.02151L14.4208 8.7702C14.1031 8.5887 13.7654 8.49795 13.4074 8.49795C13.0494 8.49795 12.7696 8.60887 12.568 8.8307C12.3713 9.05253 12.273 9.37016 12.273 9.78357C12.273 10.1869 12.3764 10.5045 12.5831 10.7364C12.7948 10.9684 13.0696 11.0843 13.4074 11.0843C13.7704 11.0843 14.1082 10.9936 14.4208 10.8121Z" fill="white"/>
<path d="M9.20696 7.96861H10.5606V8.70218H9.20696V10.313C9.20696 10.6104 9.24477 10.8121 9.3204 10.918C9.39602 11.0188 9.53215 11.0692 9.72877 11.0692C9.97077 11.0692 10.1976 11.0264 10.4094 10.9407L10.538 11.6742C10.2254 11.7751 9.88759 11.8255 9.52459 11.8255C9.06075 11.8255 8.72296 11.7221 8.51121 11.5154C8.3045 11.3087 8.20115 10.9659 8.20115 10.4869V8.70218H7.3844V7.96861H8.20115V6.53174H9.20696V7.96861Z" fill="white"/>
<path d="M4.05271 9.46595H5.89796C5.89291 9.13824 5.80973 8.88868 5.64839 8.71726C5.4921 8.5408 5.27027 8.45257 4.98289 8.45257C4.7056 8.45257 4.48377 8.5408 4.31739 8.71726C4.15606 8.89372 4.06783 9.14328 4.05271 9.46595ZM4.05271 10.139C4.07791 10.4365 4.19135 10.6734 4.39302 10.8499C4.59973 11.0213 4.85937 11.107 5.17195 11.107C5.54504 11.107 5.9156 11.0137 6.28364 10.8272L6.51052 11.5229C6.05677 11.7246 5.57781 11.8254 5.07364 11.8254C4.47873 11.8254 3.99473 11.6414 3.62164 11.2734C3.2536 10.9053 3.06958 10.4087 3.06958 9.78357C3.06958 9.14832 3.241 8.6492 3.58383 8.2862C3.92666 7.9232 4.3905 7.7417 4.97533 7.7417C5.56016 7.7417 6.01391 7.91564 6.33658 8.26351C6.66429 8.61139 6.82814 9.11051 6.82814 9.76089C6.82814 9.88693 6.82058 10.013 6.80545 10.139H4.05271Z" fill="white"/>
</svg>
