<svg width="40" height="40" viewBox="0 0 40 40" fill="none" xmlns="http://www.w3.org/2000/svg">
<circle cx="19.9998" cy="20" r="18.3333" fill="#5EDCC4"/>
<path d="M32.046 24.0272L32.5502 25.6573C31.6315 26.0718 30.6792 26.2791 29.6932 26.2791C28.2928 26.2791 27.1668 25.8702 26.3153 25.0523C25.4638 24.2344 25.0381 23.1309 25.0381 21.7416C25.0381 20.3187 25.447 19.2096 26.2649 18.4141C27.094 17.6074 28.2367 17.2041 29.6932 17.2041C30.6792 17.2041 31.6315 17.4114 32.5502 17.8259L32.046 19.4897C31.3402 19.0863 30.5895 18.8847 29.7941 18.8847C28.9986 18.8847 28.3768 19.1311 27.9286 19.6241C27.4917 20.1171 27.2732 20.8229 27.2732 21.7416C27.2732 22.6379 27.5029 23.3437 27.9623 23.8591C28.4328 24.3745 29.0434 24.6322 29.7941 24.6322C30.6007 24.6322 31.3514 24.4305 32.046 24.0272Z" fill="white"/>
<path d="M20.4598 17.7083H23.468V19.3385H20.4598V22.918C20.4598 23.5791 20.5438 24.0272 20.7119 24.2625C20.8799 24.4866 21.1824 24.5986 21.6194 24.5986C22.1572 24.5986 22.6613 24.5034 23.1319 24.3129L23.4176 25.943C22.723 26.1671 21.9723 26.2791 21.1656 26.2791C20.1349 26.2791 19.3843 26.0495 18.9137 25.5901C18.4543 25.1308 18.2247 24.3689 18.2247 23.3046V19.3385H16.4097V17.7083H18.2247V14.5153H20.4598V17.7083Z" fill="white"/>
<path d="M9.00601 21.0358H13.1066C13.0954 20.3075 12.9105 19.7529 12.552 19.372C12.2047 18.9799 11.7117 18.7838 11.0731 18.7838C10.4569 18.7838 9.96393 18.9799 9.59421 19.372C9.23569 19.7641 9.03962 20.3187 9.00601 21.0358ZM9.00601 22.5315C9.06203 23.1925 9.31411 23.7191 9.76226 24.1112C10.2216 24.4921 10.7986 24.6826 11.4932 24.6826C12.3223 24.6826 13.1458 24.4753 13.9636 24.0608L14.4678 25.6069C13.4595 26.055 12.3951 26.2791 11.2748 26.2791C9.95272 26.2791 8.87717 25.8702 8.04809 25.0523C7.23022 24.2344 6.82129 23.1309 6.82129 21.7416C6.82129 20.3299 7.20222 19.2208 7.96407 18.4141C8.72592 17.6074 9.75666 17.2041 11.0563 17.2041C12.3559 17.2041 13.3643 17.5906 14.0813 18.3637C14.8095 19.1367 15.1736 20.2459 15.1736 21.6912C15.1736 21.9713 15.1568 22.2514 15.1232 22.5315H9.00601Z" fill="white"/>
</svg>
