<svg width="18" height="18" viewBox="0 0 18 18" fill="none" xmlns="http://www.w3.org/2000/svg">
<path d="M13.545 17.25H14.79C15.42 17.25 15.9375 16.7625 16.0125 16.1475L17.25 3.7875H13.5V0.75H12.0225V3.7875H8.295L8.52 5.5425C9.8025 5.895 11.0025 6.5325 11.7225 7.2375C12.8025 8.3025 13.545 9.405 13.545 11.205V17.25ZM0.75 16.5V15.75H12.0225V16.5C12.0225 16.905 11.685 17.25 11.25 17.25H1.5C1.0875 17.25 0.75 16.905 0.75 16.5ZM12.0225 11.25C12.0225 5.25 0.75 5.25 0.75 11.25H12.0225ZM0.75 12.75H12V14.25H0.75V12.75Z" fill="black" fill-opacity="0.34"/>
</svg>
