<svg width="40" height="40" viewBox="0 0 40 40" fill="none" xmlns="http://www.w3.org/2000/svg">
<path d="M30.0998 38.3333H32.8665C34.2665 38.3333 35.4165 37.25 35.5832 35.8833L38.3332 8.41663H29.9998V1.66663H26.7165V8.41663H18.4332L18.9332 12.3166C21.7832 13.1 24.4498 14.5166 26.0498 16.0833C28.4498 18.45 30.0998 20.9 30.0998 24.9V38.3333ZM1.6665 36.6666V35H26.7165V36.6666C26.7165 37.5666 25.9665 38.3333 24.9998 38.3333H3.33317C2.4165 38.3333 1.6665 37.5666 1.6665 36.6666ZM26.7165 25C26.7165 11.6666 1.6665 11.6666 1.6665 25H26.7165ZM1.6665 28.3333H26.6665V31.6666H1.6665V28.3333Z" fill="#5EDCC4"/>
</svg>
