<svg width="18" height="18" viewBox="0 0 18 18" fill="none" xmlns="http://www.w3.org/2000/svg">
<path d="M1.5 13.374V14.625C1.5 15.6592 4.01953 16.5 7.125 16.5C10.2305 16.5 12.75 15.6592 12.75 14.625V13.374C11.54 14.2266 9.32812 14.625 7.125 14.625C4.92188 14.625 2.70996 14.2266 1.5 13.374ZM10.875 5.25C13.9805 5.25 16.5 4.40918 16.5 3.375C16.5 2.34082 13.9805 1.5 10.875 1.5C7.76953 1.5 5.25 2.34082 5.25 3.375C5.25 4.40918 7.76953 5.25 10.875 5.25ZM1.5 10.3008V11.8125C1.5 12.8467 4.01953 13.6875 7.125 13.6875C10.2305 13.6875 12.75 12.8467 12.75 11.8125V10.3008C11.54 11.2969 9.3252 11.8125 7.125 11.8125C4.9248 11.8125 2.70996 11.2969 1.5 10.3008ZM13.6875 10.623C15.3662 10.2979 16.5 9.69434 16.5 9V7.74902C15.8203 8.22949 14.8213 8.55762 13.6875 8.75977V10.623ZM7.125 6.1875C4.01953 6.1875 1.5 7.23633 1.5 8.53125C1.5 9.82617 4.01953 10.875 7.125 10.875C10.2305 10.875 12.75 9.82617 12.75 8.53125C12.75 7.23633 10.2305 6.1875 7.125 6.1875ZM13.5498 7.83691C15.3076 7.52051 16.5 6.89941 16.5 6.1875V4.93652C15.46 5.67188 13.6729 6.06738 11.792 6.16113C12.6562 6.58008 13.292 7.14258 13.5498 7.83691Z" fill="black" fill-opacity="0.34"/>
</svg>
