<svg width="40" height="40" viewBox="0 0 40 40" fill="none" xmlns="http://www.w3.org/2000/svg">
<path d="M3.3335 29.7201V32.5C3.3335 34.7982 8.93245 36.6667 15.8335 36.6667C22.7345 36.6667 28.3335 34.7982 28.3335 32.5V29.7201C25.6447 31.6146 20.7293 32.5 15.8335 32.5C10.9377 32.5 6.0223 31.6146 3.3335 29.7201ZM24.1668 11.6667C31.0679 11.6667 36.6668 9.79822 36.6668 7.50004C36.6668 5.20186 31.0679 3.33337 24.1668 3.33337C17.2658 3.33337 11.6668 5.20186 11.6668 7.50004C11.6668 9.79822 17.2658 11.6667 24.1668 11.6667ZM3.3335 22.8907V26.25C3.3335 28.5482 8.93245 30.4167 15.8335 30.4167C22.7345 30.4167 28.3335 28.5482 28.3335 26.25V22.8907C25.6447 25.1042 20.7228 26.25 15.8335 26.25C10.9442 26.25 6.0223 25.1042 3.3335 22.8907ZM30.4168 23.6068C34.1473 22.8842 36.6668 21.543 36.6668 20V17.2201C35.1564 18.2878 32.9364 19.017 30.4168 19.4662V23.6068ZM15.8335 13.75C8.93245 13.75 3.3335 16.0808 3.3335 18.9584C3.3335 21.836 8.93245 24.1667 15.8335 24.1667C22.7345 24.1667 28.3335 21.836 28.3335 18.9584C28.3335 16.0808 22.7345 13.75 15.8335 13.75ZM30.1108 17.4154C34.0171 16.7123 36.6668 15.3321 36.6668 13.75V10.9701C34.3556 12.6042 30.3843 13.4831 26.2046 13.6914C28.1252 14.6224 29.5379 15.8724 30.1108 17.4154Z" fill="#5EDCC4"/>
</svg>
