<svg width="18" height="18" viewBox="0 0 18 18" fill="none" xmlns="http://www.w3.org/2000/svg">
<path d="M15.8906 6.19312C15.8625 6.1228 15.833 6.05249 15.8027 5.98218C15.3491 4.93595 14.6149 4.03557 13.6814 3.38062H15.1875C15.3367 3.38062 15.4798 3.32135 15.5852 3.21586C15.6907 3.11037 15.75 2.9673 15.75 2.81812C15.75 2.66893 15.6907 2.52586 15.5852 2.42037C15.4798 2.31488 15.3367 2.25562 15.1875 2.25562H7.875C6.31976 2.25759 4.82213 2.84438 3.67951 3.89947C2.53689 4.95455 1.83285 6.40077 1.70719 7.95093C1.2213 8.07171 0.789581 8.3511 0.480367 8.74488C0.171152 9.13866 0.00211044 9.62432 0 10.125C0 10.2742 0.0592632 10.4172 0.164752 10.5227C0.270242 10.6282 0.413316 10.6875 0.5625 10.6875C0.711684 10.6875 0.854758 10.6282 0.960248 10.5227C1.06574 10.4172 1.125 10.2742 1.125 10.125C1.12513 9.91987 1.18134 9.71869 1.28755 9.54321C1.39375 9.36772 1.54592 9.22462 1.72758 9.12936C1.86759 10.3914 2.39382 11.5794 3.23438 12.5311L4.1175 15.0033C4.19557 15.2219 4.33939 15.4111 4.52923 15.5448C4.71907 15.6785 4.94562 15.7502 5.17781 15.75H6.07219C6.30426 15.75 6.53065 15.6783 6.72035 15.5446C6.91005 15.4109 7.05376 15.2218 7.1318 15.0033L7.2668 14.625H11.2957L11.4307 15.0033C11.5087 15.2218 11.6525 15.4109 11.8421 15.5446C12.0318 15.6783 12.2582 15.75 12.4903 15.75H13.3847C13.6168 15.75 13.8432 15.6783 14.0329 15.5446C14.2225 15.4109 14.3663 15.2218 14.4443 15.0033L15.5841 11.8125H15.75C16.1976 11.8125 16.6268 11.6347 16.9432 11.3182C17.2597 11.0018 17.4375 10.5725 17.4375 10.125V7.87499C17.4376 7.45174 17.2786 7.04392 16.9921 6.73239C16.7055 6.42087 16.3124 6.22839 15.8906 6.19312ZM10.6875 5.06249H7.875C7.72582 5.06249 7.58274 5.00323 7.47725 4.89774C7.37176 4.79225 7.3125 4.64917 7.3125 4.49999C7.3125 4.35081 7.37176 4.20773 7.47725 4.10224C7.58274 3.99675 7.72582 3.93749 7.875 3.93749H10.6875C10.8367 3.93749 10.9798 3.99675 11.0852 4.10224C11.1907 4.20773 11.25 4.35081 11.25 4.49999C11.25 4.64917 11.1907 4.79225 11.0852 4.89774C10.9798 5.00323 10.8367 5.06249 10.6875 5.06249ZM12.6562 8.99999C12.4894 8.99999 12.3262 8.95051 12.1875 8.85779C12.0487 8.76508 11.9406 8.6333 11.8767 8.47913C11.8129 8.32495 11.7962 8.1553 11.8287 7.99163C11.8613 7.82796 11.9416 7.67762 12.0596 7.55962C12.1776 7.44162 12.328 7.36126 12.4916 7.3287C12.6553 7.29615 12.825 7.31286 12.9791 7.37672C13.1333 7.44058 13.2651 7.54872 13.3578 7.68748C13.4505 7.82623 13.5 7.98936 13.5 8.15624C13.5 8.38002 13.4111 8.59463 13.2529 8.75286C13.0946 8.9111 12.88 8.99999 12.6562 8.99999Z" fill="black" fill-opacity="0.34"/>
</svg>
