<svg width="40" height="40" viewBox="0 0 40 40" fill="none" xmlns="http://www.w3.org/2000/svg">
<path d="M35.3125 13.7625C35.25 13.6062 35.1844 13.45 35.1172 13.2937C34.1091 10.9688 32.4776 8.96791 30.4031 7.51245H33.75C34.0815 7.51245 34.3995 7.38075 34.6339 7.14633C34.8683 6.91191 35 6.59397 35 6.26245C35 5.93093 34.8683 5.61299 34.6339 5.37857C34.3995 5.14415 34.0815 5.01245 33.75 5.01245H17.5C14.0439 5.01684 10.7158 6.32082 8.17669 8.66546C5.63753 11.0101 4.073 14.2239 3.79375 17.6687C2.714 17.9371 1.75462 18.558 1.06748 19.433C0.380338 20.3081 0.00468987 21.3874 0 22.5C0 22.8315 0.131696 23.1494 0.366117 23.3838C0.600537 23.6183 0.918479 23.75 1.25 23.75C1.58152 23.75 1.89946 23.6183 2.13388 23.3838C2.3683 23.1494 2.5 22.8315 2.5 22.5C2.50029 22.0441 2.6252 21.5971 2.86121 21.2071C3.09723 20.8171 3.43537 20.4991 3.83906 20.2875C4.1502 23.0919 5.3196 25.7319 7.1875 27.8468L9.15 33.3406C9.3235 33.8265 9.6431 34.2469 10.065 34.5439C10.4868 34.841 10.9903 35.0003 11.5063 35H13.4937C14.0095 35 14.5126 34.8406 14.9341 34.5435C15.3557 34.2464 15.675 33.8263 15.8484 33.3406L16.1484 32.5H25.1016L25.4016 33.3406C25.575 33.8263 25.8943 34.2464 26.3159 34.5435C26.7374 34.8406 27.2405 35 27.7563 35H29.7437C30.2595 35 30.7626 34.8406 31.1841 34.5435C31.6057 34.2464 31.925 33.8263 32.0984 33.3406L34.6312 26.25H35C35.9946 26.25 36.9484 25.8549 37.6516 25.1516C38.3549 24.4483 38.75 23.4945 38.75 22.5V17.5C38.7501 16.5594 38.3968 15.6531 37.7601 14.9608C37.1234 14.2686 36.2498 13.8408 35.3125 13.7625ZM23.75 11.25H17.5C17.1685 11.25 16.8505 11.1183 16.6161 10.8838C16.3817 10.6494 16.25 10.3315 16.25 9.99995C16.25 9.66843 16.3817 9.35049 16.6161 9.11607C16.8505 8.88165 17.1685 8.74995 17.5 8.74995H23.75C24.0815 8.74995 24.3995 8.88165 24.6339 9.11607C24.8683 9.35049 25 9.66843 25 9.99995C25 10.3315 24.8683 10.6494 24.6339 10.8838C24.3995 11.1183 24.0815 11.25 23.75 11.25ZM28.125 20C27.7542 20 27.3916 19.89 27.0833 19.684C26.775 19.4779 26.5346 19.1851 26.3927 18.8425C26.2508 18.4999 26.2137 18.1229 26.286 17.7592C26.3584 17.3954 26.537 17.0613 26.7992 16.7991C27.0614 16.5369 27.3955 16.3583 27.7592 16.286C28.1229 16.2136 28.4999 16.2508 28.8425 16.3927C29.1851 16.5346 29.478 16.7749 29.684 17.0833C29.89 17.3916 30 17.7541 30 18.125C30 18.6222 29.8025 19.0991 29.4508 19.4508C29.0992 19.8024 28.6223 20 28.125 20Z" fill="#5EDCC4"/>
</svg>
