<svg width="40" height="40" viewBox="0 0 40 40" fill="none" xmlns="http://www.w3.org/2000/svg">
<path d="M8.33333 18.3334L10.8333 10.8334H29.1667L31.6667 18.3334M29.1667 26.6667C28.5036 26.6667 27.8677 26.4033 27.3989 25.9345C26.9301 25.4656 26.6667 24.8298 26.6667 24.1667C26.6667 23.5037 26.9301 22.8678 27.3989 22.3989C27.8677 21.9301 28.5036 21.6667 29.1667 21.6667C29.8297 21.6667 30.4656 21.9301 30.9344 22.3989C31.4033 22.8678 31.6667 23.5037 31.6667 24.1667C31.6667 24.8298 31.4033 25.4656 30.9344 25.9345C30.4656 26.4033 29.8297 26.6667 29.1667 26.6667ZM10.8333 26.6667C10.1703 26.6667 9.53441 26.4033 9.06557 25.9345C8.59672 25.4656 8.33333 24.8298 8.33333 24.1667C8.33333 23.5037 8.59672 22.8678 9.06557 22.3989C9.53441 21.9301 10.1703 21.6667 10.8333 21.6667C11.4964 21.6667 12.1323 21.9301 12.6011 22.3989C13.0699 22.8678 13.3333 23.5037 13.3333 24.1667C13.3333 24.8298 13.0699 25.4656 12.6011 25.9345C12.1323 26.4033 11.4964 26.6667 10.8333 26.6667ZM31.5333 10C31.2 9.03337 30.2667 8.33337 29.1667 8.33337H10.8333C9.73333 8.33337 8.8 9.03337 8.46667 10L5 20V33.3334C5 33.7754 5.17559 34.1993 5.48816 34.5119C5.80072 34.8244 6.22464 35 6.66667 35H8.33333C8.77536 35 9.19928 34.8244 9.51184 34.5119C9.8244 34.1993 10 33.7754 10 33.3334V31.6667H30V33.3334C30 33.7754 30.1756 34.1993 30.4882 34.5119C30.8007 34.8244 31.2246 35 31.6667 35H33.3333C33.7754 35 34.1993 34.8244 34.5118 34.5119C34.8244 34.1993 35 33.7754 35 33.3334V20L31.5333 10Z" fill="#5EDCC4"/>
</svg>
