<svg width="40" height="40" viewBox="0 0 40 40" fill="none" xmlns="http://www.w3.org/2000/svg">
<path d="M10 35C12.7614 35 15 32.7614 15 30C15 27.2386 12.7614 25 10 25C7.23858 25 5 27.2386 5 30C5 32.7614 7.23858 35 10 35Z" fill="#5EDCC4" stroke="#5EDCC4" stroke-width="2" stroke-linecap="round" stroke-linejoin="round"/>
<path d="M30 33.3334C32.7614 33.3334 35 31.0948 35 28.3334C35 25.5719 32.7614 23.3334 30 23.3334C27.2386 23.3334 25 25.5719 25 28.3334C25 31.0948 27.2386 33.3334 30 33.3334Z" fill="#5EDCC4" stroke="#5EDCC4" stroke-width="2" stroke-linecap="round" stroke-linejoin="round"/>
<path d="M35 5L15 10V16.6667L35 11.6667V5Z" fill="#5EDCC4"/>
<path d="M15 30V16.6667M15 16.6667V10L35 5V11.6667M15 16.6667L35 11.6667M35 28.3333V11.6667" stroke="#5EDCC4" stroke-width="2" stroke-linecap="round" stroke-linejoin="round"/>
</svg>
