<svg width="18" height="18" viewBox="0 0 18 18" fill="none" xmlns="http://www.w3.org/2000/svg">
<path d="M4.5 15.75C5.74264 15.75 6.75 14.7426 6.75 13.5C6.75 12.2574 5.74264 11.25 4.5 11.25C3.25736 11.25 2.25 12.2574 2.25 13.5C2.25 14.7426 3.25736 15.75 4.5 15.75Z" fill="#A8A8A8" stroke="#A8A8A8" stroke-width="2" stroke-linecap="round" stroke-linejoin="round"/>
<path d="M13.5 15C14.7426 15 15.75 13.9926 15.75 12.75C15.75 11.5074 14.7426 10.5 13.5 10.5C12.2574 10.5 11.25 11.5074 11.25 12.75C11.25 13.9926 12.2574 15 13.5 15Z" fill="#A8A8A8" stroke="#A8A8A8" stroke-width="2" stroke-linecap="round" stroke-linejoin="round"/>
<path d="M15.75 2.25L6.75 4.5V7.5L15.75 5.25V2.25Z" fill="#A8A8A8"/>
<path d="M6.75 13.5V7.5M6.75 7.5V4.5L15.75 2.25V5.25M6.75 7.5L15.75 5.25M15.75 12.75V5.25" stroke="#A8A8A8" stroke-width="2" stroke-linecap="round" stroke-linejoin="round"/>
</svg>
