<svg width="24" height="24" viewBox="0 0 24 24" fill="none" xmlns="http://www.w3.org/2000/svg">
<circle cx="12" cy="12" r="11" fill="#F04D4D"/>
<path d="M19.2278 14.4163L19.5303 15.3944C18.979 15.6431 18.4077 15.7675 17.8161 15.7675C16.9758 15.7675 16.3002 15.5221 15.7893 15.0314C15.2785 14.5407 15.023 13.8786 15.023 13.045C15.023 12.1913 15.2684 11.5258 15.7591 11.0485C16.2565 10.5645 16.9422 10.3225 17.8161 10.3225C18.4077 10.3225 18.979 10.4469 19.5303 10.6956L19.2278 11.6938C18.8043 11.4518 18.3539 11.3308 17.8766 11.3308C17.3993 11.3308 17.0262 11.4787 16.7573 11.7745C16.4952 12.0703 16.3641 12.4938 16.3641 13.045C16.3641 13.5828 16.5019 14.0063 16.7775 14.3155C17.0598 14.6247 17.4262 14.7793 17.8766 14.7793C18.3606 14.7793 18.811 14.6583 19.2278 14.4163Z" fill="white"/>
<path d="M12.2759 10.625H14.0808V11.6031H12.2759V13.7508C12.2759 14.1474 12.3263 14.4163 12.4272 14.5575C12.528 14.6919 12.7095 14.7592 12.9717 14.7592C13.2943 14.7592 13.5968 14.702 13.8792 14.5878L14.0506 15.5658C13.6338 15.7003 13.1834 15.7675 12.6994 15.7675C12.081 15.7675 11.6306 15.6297 11.3482 15.3541C11.0726 15.0785 10.9348 14.6214 10.9348 13.9828V11.6031H9.84583V10.625H10.9348V8.70917H12.2759V10.625Z" fill="white"/>
<path d="M5.40367 12.6215H7.864C7.85728 12.1846 7.74636 11.8518 7.53125 11.6233C7.32286 11.388 7.02708 11.2703 6.64392 11.2703C6.2742 11.2703 5.97842 11.388 5.75658 11.6233C5.54147 11.8585 5.42383 12.1913 5.40367 12.6215ZM5.40367 13.5189C5.43728 13.9155 5.58853 14.2315 5.85742 14.4668C6.13303 14.6953 6.47922 14.8096 6.896 14.8096C7.39345 14.8096 7.88753 14.6852 8.37825 14.4365L8.68075 15.3642C8.07575 15.6331 7.43714 15.7675 6.76492 15.7675C5.9717 15.7675 5.32636 15.5221 4.82892 15.0314C4.3382 14.5407 4.09283 13.8786 4.09283 13.045C4.09283 12.198 4.32139 11.5325 4.7785 11.0485C5.23561 10.5645 5.85406 10.3225 6.63383 10.3225C7.41361 10.3225 8.01861 10.5544 8.44883 11.0183C8.88578 11.4821 9.10425 12.1476 9.10425 13.0148C9.10425 13.1828 9.09417 13.3509 9.074 13.5189H5.40367Z" fill="white"/>
</svg>
