<svg width="24" height="24" viewBox="0 0 24 24" fill="none" xmlns="http://www.w3.org/2000/svg">
<path d="M21.1875 8.25751C21.15 8.16376 21.1106 8.07001 21.0703 7.97626C20.4654 6.58129 19.4865 5.38078 18.2419 4.50751H20.25C20.4489 4.50751 20.6397 4.42849 20.7803 4.28784C20.921 4.14718 21 3.95642 21 3.75751C21 3.55859 20.921 3.36783 20.7803 3.22718C20.6397 3.08652 20.4489 3.00751 20.25 3.00751H10.5C8.42634 3.01014 6.42951 3.79253 4.90601 5.19931C3.38252 6.60609 2.4438 8.53438 2.27625 10.6013C1.6284 10.7623 1.05277 11.1348 0.640489 11.6599C0.228203 12.1849 0.00281392 12.8324 0 13.5C0 13.6989 0.0790176 13.8897 0.21967 14.0303C0.360322 14.171 0.551088 14.25 0.75 14.25C0.948912 14.25 1.13968 14.171 1.28033 14.0303C1.42098 13.8897 1.5 13.6989 1.5 13.5C1.50017 13.2265 1.57512 12.9583 1.71673 12.7243C1.85834 12.4903 2.06122 12.2995 2.30344 12.1725C2.49012 13.8552 3.19176 15.4392 4.3125 16.7081L5.49 20.0044C5.5941 20.2959 5.78586 20.5481 6.03898 20.7264C6.29209 20.9047 6.59416 21.0002 6.90375 21H8.09625C8.40568 21 8.70754 20.9044 8.96047 20.7261C9.2134 20.5479 9.40502 20.2958 9.50906 20.0044L9.68906 19.5H15.0609L15.2409 20.0044C15.345 20.2958 15.5366 20.5479 15.7895 20.7261C16.0425 20.9044 16.3443 21 16.6537 21H17.8463C18.1557 21 18.4575 20.9044 18.7105 20.7261C18.9634 20.5479 19.155 20.2958 19.2591 20.0044L20.7787 15.75H21C21.5967 15.75 22.169 15.513 22.591 15.091C23.0129 14.669 23.25 14.0967 23.25 13.5V10.5C23.2501 9.93567 23.0381 9.39191 22.6561 8.97654C22.274 8.56118 21.7499 8.30454 21.1875 8.25751ZM14.25 6.75001H10.5C10.3011 6.75001 10.1103 6.67099 9.96967 6.53034C9.82902 6.38968 9.75 6.19892 9.75 6.00001C9.75 5.80109 9.82902 5.61033 9.96967 5.46968C10.1103 5.32902 10.3011 5.25001 10.5 5.25001H14.25C14.4489 5.25001 14.6397 5.32902 14.7803 5.46968C14.921 5.61033 15 5.80109 15 6.00001C15 6.19892 14.921 6.38968 14.7803 6.53034C14.6397 6.67099 14.4489 6.75001 14.25 6.75001ZM16.875 12C16.6525 12 16.435 11.934 16.25 11.8104C16.065 11.6868 15.9208 11.5111 15.8356 11.3055C15.7505 11.1 15.7282 10.8738 15.7716 10.6555C15.815 10.4373 15.9222 10.2368 16.0795 10.0795C16.2368 9.92218 16.4373 9.81503 16.6555 9.77162C16.8738 9.72822 17.1 9.75049 17.3055 9.83564C17.5111 9.92079 17.6868 10.065 17.8104 10.25C17.934 10.435 18 10.6525 18 10.875C18 11.1734 17.8815 11.4595 17.6705 11.6705C17.4595 11.8815 17.1734 12 16.875 12Z" fill="#1665FF"/>
</svg>
