<svg width="278" height="98" viewBox="0 0 278 98" fill="none" xmlns="http://www.w3.org/2000/svg">
<path d="M115 7C115 3.13401 118.134 0 122 0H155C158.866 0 162 3.13401 162 7V79H115V7Z" fill="#79AFEF"/>
<path d="M172 58C172 54.134 175.134 51 179 51H212C215.866 51 219 54.134 219 58V78H172V58Z" fill="#79AFEF"/>
<path d="M57 49C57 45.134 60.134 42 64 42H97C100.866 42 104 45.134 104 49V79H57V49Z" fill="#79AFEF"/>
<path fill-rule="evenodd" clip-rule="evenodd" d="M238 30C234.134 30 231 33.134 231 37V54.5V79H278V54.5V37C278 33.134 274.866 30 271 30H238Z" fill="#79AFEF"/>
<path fill-rule="evenodd" clip-rule="evenodd" d="M7 17C3.13401 17 0 20.134 0 24V38V59V80H47V59V38V24C47 20.134 43.866 17 40 17H7Z" fill="#79AFEF"/>
<path d="M260.05 64.1666H261.433C262.133 64.1666 262.708 63.6249 262.792 62.9416L264.167 49.2083H260V45.8333H258.358V49.2083H254.217L254.467 51.1583C255.892 51.5499 257.225 52.2583 258.025 53.0416C259.225 54.2249 260.05 55.4499 260.05 57.4499V64.1666ZM245.833 63.3333V62.4999H258.358V63.3333C258.358 63.7833 257.983 64.1666 257.5 64.1666H246.667C246.208 64.1666 245.833 63.7833 245.833 63.3333ZM258.358 57.4999C258.358 50.8333 245.833 50.8333 245.833 57.4999H258.358ZM245.833 59.1666H258.333V60.8333H245.833V59.1666Z" fill="white"/>
<path d="M75.1667 60.1667L76.4167 56.4167H85.5833L86.8333 60.1667M85.5833 64.3334C85.2518 64.3334 84.9339 64.2017 84.6995 63.9673C84.465 63.7329 84.3333 63.4149 84.3333 63.0834C84.3333 62.7519 84.465 62.434 84.6995 62.1995C84.9339 61.9651 85.2518 61.8334 85.5833 61.8334C85.9149 61.8334 86.2328 61.9651 86.4672 62.1995C86.7016 62.434 86.8333 62.7519 86.8333 63.0834C86.8333 63.4149 86.7016 63.7329 86.4672 63.9673C86.2328 64.2017 85.9149 64.3334 85.5833 64.3334ZM76.4167 64.3334C76.0851 64.3334 75.7672 64.2017 75.5328 63.9673C75.2984 63.7329 75.1667 63.4149 75.1667 63.0834C75.1667 62.7519 75.2984 62.434 75.5328 62.1995C75.7672 61.9651 76.0851 61.8334 76.4167 61.8334C76.7482 61.8334 77.0661 61.9651 77.3006 62.1995C77.535 62.434 77.6667 62.7519 77.6667 63.0834C77.6667 63.4149 77.535 63.7329 77.3006 63.9673C77.0661 64.2017 76.7482 64.3334 76.4167 64.3334ZM86.7667 56.0001C86.6 55.5167 86.1333 55.1667 85.5833 55.1667H76.4167C75.8667 55.1667 75.4 55.5167 75.2333 56.0001L73.5 61.0001V67.6667C73.5 67.8878 73.5878 68.0997 73.7441 68.256C73.9004 68.4123 74.1123 68.5001 74.3333 68.5001H75.1667C75.3877 68.5001 75.5996 68.4123 75.7559 68.256C75.9122 68.0997 76 67.8878 76 67.6667V66.8334H86V67.6667C86 67.8878 86.0878 68.0997 86.2441 68.256C86.4004 68.4123 86.6123 68.5001 86.8333 68.5001H87.6667C87.8877 68.5001 88.0996 68.4123 88.2559 68.256C88.4122 68.0997 88.5 67.8878 88.5 67.6667V61.0001L86.7667 56.0001Z" fill="white"/>
<path d="M133 47.5C134.381 47.5 135.5 46.3807 135.5 45C135.5 43.6193 134.381 42.5 133 42.5C131.619 42.5 130.5 43.6193 130.5 45C130.5 46.3807 131.619 47.5 133 47.5Z" fill="white" stroke="white" stroke-width="2" stroke-linecap="round" stroke-linejoin="round"/>
<path d="M143 46.6667C144.381 46.6667 145.5 45.5475 145.5 44.1667C145.5 42.786 144.381 41.6667 143 41.6667C141.619 41.6667 140.5 42.786 140.5 44.1667C140.5 45.5475 141.619 46.6667 143 46.6667Z" fill="white" stroke="white" stroke-width="2" stroke-linecap="round" stroke-linejoin="round"/>
<path d="M145.5 32.5L135.5 35V38.3333L145.5 35.8333V32.5Z" fill="white"/>
<path d="M135.5 45V38.3333M135.5 38.3333V35L145.5 32.5V35.8333M135.5 38.3333L145.5 35.8333M145.5 44.1667V35.8333" stroke="white" stroke-width="2" stroke-linecap="round" stroke-linejoin="round"/>
<path d="M187.667 69.8601V71.2501C187.667 72.3992 190.466 73.3334 193.917 73.3334C197.367 73.3334 200.167 72.3992 200.167 71.2501V69.8601C198.822 70.8074 196.365 71.2501 193.917 71.2501C191.469 71.2501 189.011 70.8074 187.667 69.8601ZM198.083 60.8334C201.534 60.8334 204.333 59.8992 204.333 58.7501C204.333 57.601 201.534 56.6667 198.083 56.6667C194.633 56.6667 191.833 57.601 191.833 58.7501C191.833 59.8992 194.633 60.8334 198.083 60.8334ZM187.667 66.4454V68.1251C187.667 69.2742 190.466 70.2084 193.917 70.2084C197.367 70.2084 200.167 69.2742 200.167 68.1251V66.4454C198.822 67.5522 196.361 68.1251 193.917 68.1251C191.472 68.1251 189.011 67.5522 187.667 66.4454ZM201.208 66.8035C203.074 66.4421 204.333 65.7716 204.333 65.0001V63.6101C203.578 64.144 202.468 64.5085 201.208 64.7332V66.8035ZM193.917 61.8751C190.466 61.8751 187.667 63.0404 187.667 64.4792C187.667 65.9181 190.466 67.0834 193.917 67.0834C197.367 67.0834 200.167 65.9181 200.167 64.4792C200.167 63.0404 197.367 61.8751 193.917 61.8751ZM201.055 63.7078C203.009 63.3562 204.333 62.6661 204.333 61.8751V60.4851C203.178 61.3022 201.192 61.7416 199.102 61.8458C200.063 62.3113 200.769 62.9363 201.055 63.7078Z" fill="white"/>
<circle cx="23.9999" cy="50.9999" r="9.16667" fill="white"/>
<path d="M30.023 53.0136L30.2751 53.8286C29.8157 54.0359 29.3396 54.1396 28.8466 54.1396C28.1464 54.1396 27.5834 53.9351 27.1577 53.5261C26.7319 53.1172 26.519 52.5654 26.519 51.8708C26.519 51.1594 26.7235 50.6048 27.1324 50.2071C27.547 49.8037 28.1184 49.6021 28.8466 49.6021C29.3396 49.6021 29.8157 49.7057 30.2751 49.913L30.023 50.7448C29.6701 50.5432 29.2948 50.4423 28.897 50.4423C28.4993 50.4423 28.1884 50.5656 27.9643 50.8121C27.7458 51.0585 27.6366 51.4114 27.6366 51.8708C27.6366 52.3189 27.7515 52.6719 27.9811 52.9296C28.2164 53.1872 28.5217 53.3161 28.897 53.3161C29.3004 53.3161 29.6757 53.2152 30.023 53.0136Z" fill="#79AFEF"/>
<path d="M24.2299 49.8541H25.734V50.6692H24.2299V52.459C24.2299 52.7895 24.2719 53.0135 24.3559 53.1312C24.44 53.2432 24.5912 53.2992 24.8097 53.2992C25.0786 53.2992 25.3307 53.2516 25.5659 53.1564L25.7088 53.9715C25.3615 54.0835 24.9862 54.1395 24.5828 54.1395C24.0674 54.1395 23.6921 54.0247 23.4568 53.795C23.2272 53.5653 23.1123 53.1844 23.1123 52.6522V50.6692H22.2048V49.8541H23.1123V48.2576H24.2299V49.8541Z" fill="#79AFEF"/>
<path d="M18.503 51.5179H20.5533C20.5477 51.1538 20.4553 50.8765 20.276 50.686C20.1023 50.4899 19.8559 50.3919 19.5365 50.3919C19.2284 50.3919 18.982 50.4899 18.7971 50.686C18.6178 50.8821 18.5198 51.1594 18.503 51.5179ZM18.503 52.2657C18.531 52.5962 18.6571 52.8595 18.8811 53.0556C19.1108 53.2461 19.3993 53.3413 19.7466 53.3413C20.1612 53.3413 20.5729 53.2377 20.9818 53.0304L21.2339 53.8034C20.7297 54.0275 20.1976 54.1396 19.6374 54.1396C18.9764 54.1396 18.4386 53.9351 18.024 53.5261C17.6151 53.1172 17.4106 52.5654 17.4106 51.8708C17.4106 51.165 17.6011 50.6104 17.982 50.2071C18.363 49.8037 18.8783 49.6021 19.5281 49.6021C20.178 49.6021 20.6821 49.7953 21.0406 50.1818C21.4048 50.5684 21.5868 51.123 21.5868 51.8456C21.5868 51.9856 21.5784 52.1257 21.5616 52.2657H18.503Z" fill="#79AFEF"/>
<path d="M14.3608 87.74H18.5608C18.5608 90.33 17.3708 92.61 14.3908 94.07L13.9508 93.4C16.3608 92.25 17.5608 90.53 17.7308 88.4H14.3608V87.74ZM20.3708 86.77H21.1908V95.74H20.3708V86.77ZM24.24 90.76V92.91C25.83 92.91 26.95 92.84 28.27 92.62L28.35 93.28C26.97 93.52 25.81 93.58 24.12 93.58H23.42V87.58H27.6V88.25H24.24V90.1H27.4V90.76H24.24ZM31.41 90.37V91.06H29.93V95.73H29.11V86.77H29.93V90.37H31.41Z" fill="black" fill-opacity="0.87"/>
<path d="M68.9716 88.66V88.34H63.4716V87.67H69.7916V88.66C69.7916 89.8 69.7916 90.97 69.4716 92.65L68.6616 92.55C68.9716 90.95 68.9716 89.77 68.9716 88.66ZM67.6516 93.81H70.7416V94.48H62.6316V93.81H64.6216V90.84H65.4316V93.81H66.8416V90.84H67.6516V93.81ZM75.8808 95.11C77.3308 95.11 78.1308 94.83 78.1308 94.29C78.1308 93.76 77.3308 93.47 75.8808 93.47C74.4408 93.47 73.6308 93.76 73.6308 94.29C73.6308 94.83 74.4408 95.11 75.8808 95.11ZM75.8808 92.86C77.8308 92.86 78.9508 93.36 78.9508 94.29C78.9508 95.23 77.8308 95.73 75.8808 95.73C73.9308 95.73 72.8108 95.23 72.8108 94.29C72.8108 93.36 73.9308 92.86 75.8808 92.86ZM76.2908 91.52H79.9408V92.18H71.8208V91.52H75.4708V90.64H72.8908V87.03H78.9408V87.67H73.7108V88.5H78.7008V89.12H73.7108V90H78.9908V90.64H76.2908V91.52ZM88.75 90.19L88.41 90.85C87.02 90.61 85.67 89.83 85.09 88.75C84.53 89.84 83.18 90.61 81.78 90.85L81.45 90.19C83.08 89.95 84.66 88.87 84.66 87.59V87.09H85.52V87.59C85.52 88.84 87.12 89.95 88.75 90.19ZM89.14 91.82L89.15 92.5H85.48V95.75H84.66V92.5H81.04V91.82H89.14ZM95.4192 90.7L95.5092 91.36C94.2792 91.61 93.2192 91.67 91.3392 91.67H90.6392V87.55H94.6092V88.21H91.4592V91C93.2292 91 94.2492 90.93 95.4192 90.7ZM92.4292 92.61V94.87H97.5892V95.54H91.6092V92.61H92.4292ZM97.1892 89.43H98.5192V90.11H97.1892V93.26H96.3692V86.77H97.1892V89.43Z" fill="black" fill-opacity="0.87"/>
<path d="M126.892 89.68V87.85H122.472V89.68H126.892ZM127.702 87.19V90.34H121.672V87.19H127.702ZM122.472 92.98V94.87H127.852V95.54H121.652V92.98H122.472ZM120.612 91.36H128.762V92.02H125.162V93.83H124.342V92.02H120.612V91.36ZM135.241 87.86V88.51H129.881V87.86H132.161V86.78H132.981V87.86H135.241ZM131.231 90.7C131.231 91.32 131.771 91.72 132.571 91.72C133.371 91.72 133.911 91.32 133.911 90.7C133.911 90.08 133.371 89.67 132.571 89.67C131.771 89.67 131.231 90.08 131.231 90.7ZM132.981 92.34V93.29C133.791 93.25 134.621 93.19 135.391 93.07L135.441 93.68C133.521 94.02 131.411 94.04 129.841 94.04L129.731 93.35C130.451 93.35 131.291 93.35 132.161 93.32V92.34C131.131 92.21 130.451 91.59 130.451 90.7C130.451 89.69 131.321 89.04 132.571 89.04C133.821 89.04 134.691 89.69 134.691 90.7C134.691 91.59 134.011 92.21 132.981 92.34ZM138.141 90.58V91.27H136.741V95.74H135.921V86.77H136.741V90.58H138.141ZM144.67 89.85V92.02H143.89V86.95H144.67V89.18H145.81V86.78H146.6V92.31H145.81V89.85H144.67ZM143.52 90.98L143.08 91.61C142.24 91.27 141.63 90.63 141.31 89.87C140.99 90.71 140.35 91.47 139.48 91.86L139.04 91.22C140.21 90.7 140.91 89.54 140.91 88.54V87.33H141.7V88.54C141.7 89.53 142.37 90.54 143.52 90.98ZM143.64 95.1C145 95.1 145.83 94.74 145.83 94.12C145.83 93.5 145 93.15 143.64 93.15C142.3 93.15 141.46 93.5 141.46 94.12C141.46 94.74 142.3 95.1 143.64 95.1ZM143.64 92.51C145.49 92.51 146.64 93.1 146.64 94.12C146.64 95.14 145.49 95.73 143.64 95.73C141.8 95.73 140.65 95.14 140.65 94.12C140.65 93.1 141.8 92.51 143.64 92.51ZM153.559 87.45V88.04H148.409V87.45H150.579V86.68H151.399V87.45H153.559ZM149.669 89.5C149.669 89.9 150.179 90.15 150.989 90.15C151.789 90.15 152.299 89.9 152.299 89.5C152.299 89.1 151.789 88.86 150.989 88.86C150.179 88.86 149.669 89.1 149.669 89.5ZM153.829 90.99L153.879 91.51C151.969 91.85 149.849 91.86 148.279 91.86L148.189 91.25C148.889 91.25 149.719 91.25 150.579 91.22V90.67C149.539 90.59 148.889 90.17 148.889 89.5C148.889 88.76 149.709 88.32 150.989 88.32C152.249 88.32 153.079 88.76 153.079 89.5C153.079 90.16 152.429 90.58 151.399 90.67V91.2C152.219 91.16 153.059 91.09 153.829 90.99ZM150.199 94.29V95.05H155.519V95.64H149.399V93.74H154.369V93.04H149.369V92.46H155.179V94.29H150.199ZM155.179 89.06H156.499V89.75H155.179V92.07H154.359V86.77H155.179V89.06Z" fill="black" fill-opacity="0.87"/>
<path d="M189.631 93.09V94.96H194.141V93.09H189.631ZM188.831 95.62V92.43H194.951V95.62H188.831ZM194.681 90.55H195.971V91.21H187.821V90.55H193.851C194.111 89.43 194.111 88.61 194.111 87.91H188.861V87.25H194.921V87.91C194.921 88.61 194.921 89.43 194.681 90.55ZM201.08 87.59C199.66 87.59 198.77 87.97 198.77 88.63C198.77 89.28 199.66 89.67 201.08 89.67C202.5 89.67 203.39 89.28 203.39 88.63C203.39 87.97 202.5 87.59 201.08 87.59ZM201.08 90.3C199.14 90.3 197.93 89.69 197.93 88.63C197.93 87.57 199.14 86.95 201.08 86.95C203.03 86.95 204.23 87.57 204.23 88.63C204.23 89.69 203.03 90.3 201.08 90.3ZM202.3 92.65V91.63H199.89V92.64C200.25 92.58 200.64 92.55 201.08 92.55C201.53 92.55 201.94 92.58 202.3 92.65ZM203.32 94.14C203.32 93.54 202.48 93.18 201.08 93.18C199.67 93.18 198.84 93.54 198.84 94.14C198.84 94.76 199.67 95.1 201.08 95.1C202.48 95.1 203.32 94.76 203.32 94.14ZM205.14 91.63H203.12V92.87C203.78 93.13 204.15 93.57 204.15 94.14C204.15 95.17 203 95.74 201.08 95.74C199.16 95.74 198.01 95.17 198.01 94.14C198.01 93.56 198.4 93.11 199.07 92.86V91.63H197.03V90.97H205.14V91.63Z" fill="black" fill-opacity="0.87"/>
<path d="M251.241 90.99L250.831 91.64C249.801 91.27 248.991 90.5 248.591 89.51C248.201 90.57 247.381 91.4 246.331 91.8L245.911 91.15C247.261 90.66 248.171 89.41 248.171 88.07V87.19H248.991V88.07C248.991 89.36 249.911 90.53 251.241 90.99ZM247.191 93.29V92.63H253.191V95.75H252.371V93.29H247.191ZM252.371 86.78H253.191V92.17H252.371V86.78ZM261.55 86.77H262.37V95.75H261.55V86.77ZM255.54 87.53H256.35V89.9H258.95V87.53H259.76V93.58H255.54V87.53ZM256.35 90.55V92.91H258.95V90.55H256.35Z" fill="black" fill-opacity="0.87"/>
</svg>
