<svg width="279" height="98" viewBox="0 0 279 98" fill="none" xmlns="http://www.w3.org/2000/svg">
<path d="M232 7C232 3.13401 235.134 0 239 0H272C275.866 0 279 3.13401 279 7V79H232V7Z" fill="#79AFEF"/>
<path d="M0 59C0 55.134 3.13401 52 7 52H40C43.866 52 47 55.134 47 59V79H0V59Z" fill="#79AFEF"/>
<path d="M58 49C58 45.134 61.134 42 65 42H98C101.866 42 105 45.134 105 49V79H58V49Z" fill="#79AFEF"/>
<path fill-rule="evenodd" clip-rule="evenodd" d="M123 30C119.134 30 116 33.134 116 37V54.5V79H163V54.5V37C163 33.134 159.866 30 156 30H123Z" fill="#79AFEF"/>
<path fill-rule="evenodd" clip-rule="evenodd" d="M181 16C177.134 16 174 19.134 174 23V37V58V79H221V58V37V23C221 19.134 217.866 16 214 16H181Z" fill="#79AFEF"/>
<path d="M261.05 49.1666H262.433C263.133 49.1666 263.708 48.6249 263.792 47.9416L265.167 34.2083H261V30.8333H259.358V34.2083H255.217L255.467 36.1583C256.892 36.5499 258.225 37.2583 259.025 38.0416C260.225 39.2249 261.05 40.4499 261.05 42.4499V49.1666ZM246.833 48.3333V47.4999H259.358V48.3333C259.358 48.7833 258.983 49.1666 258.5 49.1666H247.667C247.208 49.1666 246.833 48.7833 246.833 48.3333ZM259.358 42.4999C259.358 35.8333 246.833 35.8333 246.833 42.4999H259.358ZM246.833 44.1666H259.333V45.8333H246.833V44.1666Z" fill="white"/>
<path d="M76.1667 60.1667L77.4167 56.4167H86.5833L87.8333 60.1667M86.5833 64.3334C86.2518 64.3334 85.9339 64.2017 85.6995 63.9673C85.465 63.7329 85.3333 63.4149 85.3333 63.0834C85.3333 62.7519 85.465 62.434 85.6995 62.1995C85.9339 61.9651 86.2518 61.8334 86.5833 61.8334C86.9149 61.8334 87.2328 61.9651 87.4672 62.1995C87.7016 62.434 87.8333 62.7519 87.8333 63.0834C87.8333 63.4149 87.7016 63.7329 87.4672 63.9673C87.2328 64.2017 86.9149 64.3334 86.5833 64.3334ZM77.4167 64.3334C77.0851 64.3334 76.7672 64.2017 76.5328 63.9673C76.2984 63.7329 76.1667 63.4149 76.1667 63.0834C76.1667 62.7519 76.2984 62.434 76.5328 62.1995C76.7672 61.9651 77.0851 61.8334 77.4167 61.8334C77.7482 61.8334 78.0661 61.9651 78.3006 62.1995C78.535 62.434 78.6667 62.7519 78.6667 63.0834C78.6667 63.4149 78.535 63.7329 78.3006 63.9673C78.0661 64.2017 77.7482 64.3334 77.4167 64.3334ZM87.7667 56.0001C87.6 55.5167 87.1333 55.1667 86.5833 55.1667H77.4167C76.8667 55.1667 76.4 55.5167 76.2333 56.0001L74.5 61.0001V67.6667C74.5 67.8878 74.5878 68.0997 74.7441 68.256C74.9004 68.4123 75.1123 68.5001 75.3333 68.5001H76.1667C76.3877 68.5001 76.5996 68.4123 76.7559 68.256C76.9122 68.0997 77 67.8878 77 67.6667V66.8334H87V67.6667C87 67.8878 87.0878 68.0997 87.2441 68.256C87.4004 68.4123 87.6123 68.5001 87.8333 68.5001H88.6667C88.8877 68.5001 89.0996 68.4123 89.2559 68.256C89.4122 68.0997 89.5 67.8878 89.5 67.6667V61.0001L87.7667 56.0001Z" fill="white"/>
<path d="M134 62.5C135.381 62.5 136.5 61.3807 136.5 60C136.5 58.6193 135.381 57.5 134 57.5C132.619 57.5 131.5 58.6193 131.5 60C131.5 61.3807 132.619 62.5 134 62.5Z" fill="white" stroke="white" stroke-width="2" stroke-linecap="round" stroke-linejoin="round"/>
<path d="M144 61.6667C145.381 61.6667 146.5 60.5475 146.5 59.1667C146.5 57.786 145.381 56.6667 144 56.6667C142.619 56.6667 141.5 57.786 141.5 59.1667C141.5 60.5475 142.619 61.6667 144 61.6667Z" fill="white" stroke="white" stroke-width="2" stroke-linecap="round" stroke-linejoin="round"/>
<path d="M146.5 47.5L136.5 50V53.3333L146.5 50.8333V47.5Z" fill="white"/>
<path d="M136.5 60V53.3333M136.5 53.3333V50L146.5 47.5V50.8333M136.5 53.3333L146.5 50.8333M146.5 59.1667V50.8333" stroke="white" stroke-width="2" stroke-linecap="round" stroke-linejoin="round"/>
<path d="M189.667 52.8601V54.2501C189.667 55.3992 192.466 56.3334 195.917 56.3334C199.367 56.3334 202.167 55.3992 202.167 54.2501V52.8601C200.822 53.8074 198.365 54.2501 195.917 54.2501C193.469 54.2501 191.011 53.8074 189.667 52.8601ZM200.083 43.8334C203.534 43.8334 206.333 42.8992 206.333 41.7501C206.333 40.601 203.534 39.6667 200.083 39.6667C196.633 39.6667 193.833 40.601 193.833 41.7501C193.833 42.8992 196.633 43.8334 200.083 43.8334ZM189.667 49.4454V51.1251C189.667 52.2742 192.466 53.2084 195.917 53.2084C199.367 53.2084 202.167 52.2742 202.167 51.1251V49.4454C200.822 50.5522 198.361 51.1251 195.917 51.1251C193.472 51.1251 191.011 50.5522 189.667 49.4454ZM203.208 49.8035C205.074 49.4421 206.333 48.7716 206.333 48.0001V46.6101C205.578 47.144 204.468 47.5085 203.208 47.7332V49.8035ZM195.917 44.8751C192.466 44.8751 189.667 46.0404 189.667 47.4792C189.667 48.9181 192.466 50.0834 195.917 50.0834C199.367 50.0834 202.167 48.9181 202.167 47.4792C202.167 46.0404 199.367 44.8751 195.917 44.8751ZM203.055 46.7078C205.009 46.3562 206.333 45.6661 206.333 44.8751V43.4851C205.178 44.3022 203.192 44.7416 201.102 44.8458C202.063 45.3113 202.769 45.9363 203.055 46.7078Z" fill="white"/>
<circle cx="23.9999" cy="65.9999" r="9.16667" fill="white"/>
<path d="M30.023 68.0136L30.2751 68.8286C29.8157 69.0359 29.3396 69.1396 28.8466 69.1396C28.1464 69.1396 27.5834 68.9351 27.1577 68.5261C26.7319 68.1172 26.519 67.5654 26.519 66.8708C26.519 66.1594 26.7235 65.6048 27.1324 65.2071C27.547 64.8037 28.1184 64.6021 28.8466 64.6021C29.3396 64.6021 29.8157 64.7057 30.2751 64.913L30.023 65.7448C29.6701 65.5432 29.2948 65.4423 28.897 65.4423C28.4993 65.4423 28.1884 65.5656 27.9643 65.8121C27.7458 66.0585 27.6366 66.4114 27.6366 66.8708C27.6366 67.3189 27.7515 67.6719 27.9811 67.9296C28.2164 68.1872 28.5217 68.3161 28.897 68.3161C29.3004 68.3161 29.6757 68.2152 30.023 68.0136Z" fill="#79AFEF"/>
<path d="M24.2299 64.8541H25.734V65.6692H24.2299V67.459C24.2299 67.7895 24.2719 68.0135 24.3559 68.1312C24.44 68.2432 24.5912 68.2992 24.8097 68.2992C25.0786 68.2992 25.3307 68.2516 25.5659 68.1564L25.7088 68.9715C25.3615 69.0835 24.9862 69.1395 24.5828 69.1395C24.0674 69.1395 23.6921 69.0247 23.4568 68.795C23.2272 68.5653 23.1123 68.1844 23.1123 67.6522V65.6692H22.2048V64.8541H23.1123V63.2576H24.2299V64.8541Z" fill="#79AFEF"/>
<path d="M18.503 66.5179H20.5533C20.5477 66.1538 20.4553 65.8765 20.276 65.686C20.1023 65.4899 19.8559 65.3919 19.5365 65.3919C19.2284 65.3919 18.982 65.4899 18.7971 65.686C18.6178 65.8821 18.5198 66.1594 18.503 66.5179ZM18.503 67.2657C18.531 67.5962 18.6571 67.8595 18.8811 68.0556C19.1108 68.2461 19.3993 68.3413 19.7466 68.3413C20.1612 68.3413 20.5729 68.2377 20.9818 68.0304L21.2339 68.8034C20.7297 69.0275 20.1976 69.1396 19.6374 69.1396C18.9764 69.1396 18.4386 68.9351 18.024 68.5261C17.6151 68.1172 17.4106 67.5654 17.4106 66.8708C17.4106 66.165 17.6011 65.6104 17.982 65.2071C18.363 64.8037 18.8783 64.6021 19.5281 64.6021C20.178 64.6021 20.6821 64.7953 21.0406 65.1818C21.4048 65.5684 21.5868 66.123 21.5868 66.8456C21.5868 66.9856 21.5784 67.1257 21.5616 67.2657H18.503Z" fill="#79AFEF"/>
<path d="M15.3608 87.74H19.5608C19.5608 90.33 18.3708 92.61 15.3908 94.07L14.9508 93.4C17.3608 92.25 18.5608 90.53 18.7308 88.4H15.3608V87.74ZM21.3708 86.77H22.1908V95.74H21.3708V86.77ZM25.24 90.76V92.91C26.83 92.91 27.95 92.84 29.27 92.62L29.35 93.28C27.97 93.52 26.81 93.58 25.12 93.58H24.42V87.58H28.6V88.25H25.24V90.1H28.4V90.76H25.24ZM32.41 90.37V91.06H30.93V95.73H30.11V86.77H30.93V90.37H32.41Z" fill="black" fill-opacity="0.87"/>
<path d="M69.9716 88.66V88.34H64.4716V87.67H70.7916V88.66C70.7916 89.8 70.7916 90.97 70.4716 92.65L69.6616 92.55C69.9716 90.95 69.9716 89.77 69.9716 88.66ZM68.6516 93.81H71.7416V94.48H63.6316V93.81H65.6216V90.84H66.4316V93.81H67.8416V90.84H68.6516V93.81ZM76.8808 95.11C78.3308 95.11 79.1308 94.83 79.1308 94.29C79.1308 93.76 78.3308 93.47 76.8808 93.47C75.4408 93.47 74.6308 93.76 74.6308 94.29C74.6308 94.83 75.4408 95.11 76.8808 95.11ZM76.8808 92.86C78.8308 92.86 79.9508 93.36 79.9508 94.29C79.9508 95.23 78.8308 95.73 76.8808 95.73C74.9308 95.73 73.8108 95.23 73.8108 94.29C73.8108 93.36 74.9308 92.86 76.8808 92.86ZM77.2908 91.52H80.9408V92.18H72.8208V91.52H76.4708V90.64H73.8908V87.03H79.9408V87.67H74.7108V88.5H79.7008V89.12H74.7108V90H79.9908V90.64H77.2908V91.52ZM89.75 90.19L89.41 90.85C88.02 90.61 86.67 89.83 86.09 88.75C85.53 89.84 84.18 90.61 82.78 90.85L82.45 90.19C84.08 89.95 85.66 88.87 85.66 87.59V87.09H86.52V87.59C86.52 88.84 88.12 89.95 89.75 90.19ZM90.14 91.82L90.15 92.5H86.48V95.75H85.66V92.5H82.04V91.82H90.14ZM96.4192 90.7L96.5092 91.36C95.2792 91.61 94.2192 91.67 92.3392 91.67H91.6392V87.55H95.6092V88.21H92.4592V91C94.2292 91 95.2492 90.93 96.4192 90.7ZM93.4292 92.61V94.87H98.5892V95.54H92.6092V92.61H93.4292ZM98.1892 89.43H99.5192V90.11H98.1892V93.26H97.3692V86.77H98.1892V89.43Z" fill="black" fill-opacity="0.87"/>
<path d="M127.892 89.68V87.85H123.472V89.68H127.892ZM128.702 87.19V90.34H122.672V87.19H128.702ZM123.472 92.98V94.87H128.852V95.54H122.652V92.98H123.472ZM121.612 91.36H129.762V92.02H126.162V93.83H125.342V92.02H121.612V91.36ZM136.241 87.86V88.51H130.881V87.86H133.161V86.78H133.981V87.86H136.241ZM132.231 90.7C132.231 91.32 132.771 91.72 133.571 91.72C134.371 91.72 134.911 91.32 134.911 90.7C134.911 90.08 134.371 89.67 133.571 89.67C132.771 89.67 132.231 90.08 132.231 90.7ZM133.981 92.34V93.29C134.791 93.25 135.621 93.19 136.391 93.07L136.441 93.68C134.521 94.02 132.411 94.04 130.841 94.04L130.731 93.35C131.451 93.35 132.291 93.35 133.161 93.32V92.34C132.131 92.21 131.451 91.59 131.451 90.7C131.451 89.69 132.321 89.04 133.571 89.04C134.821 89.04 135.691 89.69 135.691 90.7C135.691 91.59 135.011 92.21 133.981 92.34ZM139.141 90.58V91.27H137.741V95.74H136.921V86.77H137.741V90.58H139.141ZM145.67 89.85V92.02H144.89V86.95H145.67V89.18H146.81V86.78H147.6V92.31H146.81V89.85H145.67ZM144.52 90.98L144.08 91.61C143.24 91.27 142.63 90.63 142.31 89.87C141.99 90.71 141.35 91.47 140.48 91.86L140.04 91.22C141.21 90.7 141.91 89.54 141.91 88.54V87.33H142.7V88.54C142.7 89.53 143.37 90.54 144.52 90.98ZM144.64 95.1C146 95.1 146.83 94.74 146.83 94.12C146.83 93.5 146 93.15 144.64 93.15C143.3 93.15 142.46 93.5 142.46 94.12C142.46 94.74 143.3 95.1 144.64 95.1ZM144.64 92.51C146.49 92.51 147.64 93.1 147.64 94.12C147.64 95.14 146.49 95.73 144.64 95.73C142.8 95.73 141.65 95.14 141.65 94.12C141.65 93.1 142.8 92.51 144.64 92.51ZM154.559 87.45V88.04H149.409V87.45H151.579V86.68H152.399V87.45H154.559ZM150.669 89.5C150.669 89.9 151.179 90.15 151.989 90.15C152.789 90.15 153.299 89.9 153.299 89.5C153.299 89.1 152.789 88.86 151.989 88.86C151.179 88.86 150.669 89.1 150.669 89.5ZM154.829 90.99L154.879 91.51C152.969 91.85 150.849 91.86 149.279 91.86L149.189 91.25C149.889 91.25 150.719 91.25 151.579 91.22V90.67C150.539 90.59 149.889 90.17 149.889 89.5C149.889 88.76 150.709 88.32 151.989 88.32C153.249 88.32 154.079 88.76 154.079 89.5C154.079 90.16 153.429 90.58 152.399 90.67V91.2C153.219 91.16 154.059 91.09 154.829 90.99ZM151.199 94.29V95.05H156.519V95.64H150.399V93.74H155.369V93.04H150.369V92.46H156.179V94.29H151.199ZM156.179 89.06H157.499V89.75H156.179V92.07H155.359V86.77H156.179V89.06Z" fill="black" fill-opacity="0.87"/>
<path d="M190.631 93.09V94.96H195.141V93.09H190.631ZM189.831 95.62V92.43H195.951V95.62H189.831ZM195.681 90.55H196.971V91.21H188.821V90.55H194.851C195.111 89.43 195.111 88.61 195.111 87.91H189.861V87.25H195.921V87.91C195.921 88.61 195.921 89.43 195.681 90.55ZM202.08 87.59C200.66 87.59 199.77 87.97 199.77 88.63C199.77 89.28 200.66 89.67 202.08 89.67C203.5 89.67 204.39 89.28 204.39 88.63C204.39 87.97 203.5 87.59 202.08 87.59ZM202.08 90.3C200.14 90.3 198.93 89.69 198.93 88.63C198.93 87.57 200.14 86.95 202.08 86.95C204.03 86.95 205.23 87.57 205.23 88.63C205.23 89.69 204.03 90.3 202.08 90.3ZM203.3 92.65V91.63H200.89V92.64C201.25 92.58 201.64 92.55 202.08 92.55C202.53 92.55 202.94 92.58 203.3 92.65ZM204.32 94.14C204.32 93.54 203.48 93.18 202.08 93.18C200.67 93.18 199.84 93.54 199.84 94.14C199.84 94.76 200.67 95.1 202.08 95.1C203.48 95.1 204.32 94.76 204.32 94.14ZM206.14 91.63H204.12V92.87C204.78 93.13 205.15 93.57 205.15 94.14C205.15 95.17 204 95.74 202.08 95.74C200.16 95.74 199.01 95.17 199.01 94.14C199.01 93.56 199.4 93.11 200.07 92.86V91.63H198.03V90.97H206.14V91.63Z" fill="black" fill-opacity="0.87"/>
<path d="M252.241 90.99L251.831 91.64C250.801 91.27 249.991 90.5 249.591 89.51C249.201 90.57 248.381 91.4 247.331 91.8L246.911 91.15C248.261 90.66 249.171 89.41 249.171 88.07V87.19H249.991V88.07C249.991 89.36 250.911 90.53 252.241 90.99ZM248.191 93.29V92.63H254.191V95.75H253.371V93.29H248.191ZM253.371 86.78H254.191V92.17H253.371V86.78ZM262.55 86.77H263.37V95.75H262.55V86.77ZM256.54 87.53H257.35V89.9H259.95V87.53H260.76V93.58H256.54V87.53ZM257.35 90.55V92.91H259.95V90.55H257.35Z" fill="black" fill-opacity="0.87"/>
</svg>
