<svg width="278" height="106" viewBox="0 0 278 106" fill="none" xmlns="http://www.w3.org/2000/svg">
<path d="M57 36C57 32.134 60.134 29 64 29H97C100.866 29 104 32.134 104 36V88H57V36Z" fill="#79AFEF"/>
<path d="M173 44C173 40.134 176.134 37 180 37H213C216.866 37 220 40.134 220 44V87H173V44Z" fill="#79AFEF"/>
<path d="M115 57C115 53.134 118.134 50 122 50H155C158.866 50 162 53.134 162 57V87H115V57Z" fill="#79AFEF"/>
<path fill-rule="evenodd" clip-rule="evenodd" d="M238 38C234.134 38 231 41.134 231 45V62.5V87H278V62.5V45C278 41.134 274.866 38 271 38H238Z" fill="#79AFEF"/>
<path fill-rule="evenodd" clip-rule="evenodd" d="M7 0C3.13401 0 0 3.13401 0 7.00001V29.3333V58.6667V88H47V58.6667V29.3333V7C47 3.13401 43.866 0 40 0H7Z" fill="#79AFEF"/>
<path d="M260.05 72.1666H261.433C262.133 72.1666 262.708 71.6249 262.792 70.9416L264.167 57.2083H260V53.8333H258.358V57.2083H254.217L254.467 59.1583C255.892 59.5499 257.225 60.2583 258.025 61.0416C259.225 62.2249 260.05 63.4499 260.05 65.4499V72.1666ZM245.833 71.3333V70.4999H258.358V71.3333C258.358 71.7833 257.983 72.1666 257.5 72.1666H246.667C246.208 72.1666 245.833 71.7833 245.833 71.3333ZM258.358 65.4999C258.358 58.8333 245.833 58.8333 245.833 65.4999H258.358ZM245.833 67.1666H258.333V68.8333H245.833V67.1666Z" fill="white"/>
<path d="M75.1667 59.1667L76.4167 55.4167H85.5833L86.8333 59.1667M85.5833 63.3334C85.2518 63.3334 84.9339 63.2017 84.6995 62.9673C84.465 62.7329 84.3333 62.4149 84.3333 62.0834C84.3333 61.7519 84.465 61.434 84.6995 61.1995C84.9339 60.9651 85.2518 60.8334 85.5833 60.8334C85.9149 60.8334 86.2328 60.9651 86.4672 61.1995C86.7016 61.434 86.8333 61.7519 86.8333 62.0834C86.8333 62.4149 86.7016 62.7329 86.4672 62.9673C86.2328 63.2017 85.9149 63.3334 85.5833 63.3334ZM76.4167 63.3334C76.0851 63.3334 75.7672 63.2017 75.5328 62.9673C75.2984 62.7329 75.1667 62.4149 75.1667 62.0834C75.1667 61.7519 75.2984 61.434 75.5328 61.1995C75.7672 60.9651 76.0851 60.8334 76.4167 60.8334C76.7482 60.8334 77.0661 60.9651 77.3006 61.1995C77.535 61.434 77.6667 61.7519 77.6667 62.0834C77.6667 62.4149 77.535 62.7329 77.3006 62.9673C77.0661 63.2017 76.7482 63.3334 76.4167 63.3334ZM86.7667 55.0001C86.6 54.5167 86.1333 54.1667 85.5833 54.1667H76.4167C75.8667 54.1667 75.4 54.5167 75.2333 55.0001L73.5 60.0001V66.6667C73.5 66.8878 73.5878 67.0997 73.7441 67.256C73.9004 67.4123 74.1123 67.5001 74.3333 67.5001H75.1667C75.3877 67.5001 75.5996 67.4123 75.7559 67.256C75.9122 67.0997 76 66.8878 76 66.6667V65.8334H86V66.6667C86 66.8878 86.0878 67.0997 86.2441 67.256C86.4004 67.4123 86.6123 67.5001 86.8333 67.5001H87.6667C87.8877 67.5001 88.0996 67.4123 88.2559 67.256C88.4122 67.0997 88.5 66.8878 88.5 66.6667V60.0001L86.7667 55.0001Z" fill="white"/>
<path d="M133 76.5C134.381 76.5 135.5 75.3807 135.5 74C135.5 72.6193 134.381 71.5 133 71.5C131.619 71.5 130.5 72.6193 130.5 74C130.5 75.3807 131.619 76.5 133 76.5Z" fill="white" stroke="white" stroke-width="2" stroke-linecap="round" stroke-linejoin="round"/>
<path d="M143 75.6667C144.381 75.6667 145.5 74.5475 145.5 73.1667C145.5 71.786 144.381 70.6667 143 70.6667C141.619 70.6667 140.5 71.786 140.5 73.1667C140.5 74.5475 141.619 75.6667 143 75.6667Z" fill="white" stroke="white" stroke-width="2" stroke-linecap="round" stroke-linejoin="round"/>
<path d="M145.5 61.5L135.5 64V67.3333L145.5 64.8333V61.5Z" fill="white"/>
<path d="M135.5 74V67.3333M135.5 67.3333V64L145.5 61.5V64.8333M135.5 67.3333L145.5 64.8333M145.5 73.1667V64.8333" stroke="white" stroke-width="2" stroke-linecap="round" stroke-linejoin="round"/>
<path d="M188.667 67.8601V69.2501C188.667 70.3992 191.466 71.3334 194.917 71.3334C198.367 71.3334 201.167 70.3992 201.167 69.2501V67.8601C199.822 68.8074 197.365 69.2501 194.917 69.2501C192.469 69.2501 190.011 68.8074 188.667 67.8601ZM199.083 58.8334C202.534 58.8334 205.333 57.8992 205.333 56.7501C205.333 55.601 202.534 54.6667 199.083 54.6667C195.633 54.6667 192.833 55.601 192.833 56.7501C192.833 57.8992 195.633 58.8334 199.083 58.8334ZM188.667 64.4454V66.1251C188.667 67.2742 191.466 68.2084 194.917 68.2084C198.367 68.2084 201.167 67.2742 201.167 66.1251V64.4454C199.822 65.5522 197.361 66.1251 194.917 66.1251C192.472 66.1251 190.011 65.5522 188.667 64.4454ZM202.208 64.8035C204.074 64.4421 205.333 63.7716 205.333 63.0001V61.6101C204.578 62.144 203.468 62.5085 202.208 62.7332V64.8035ZM194.917 59.8751C191.466 59.8751 188.667 61.0404 188.667 62.4792C188.667 63.9181 191.466 65.0834 194.917 65.0834C198.367 65.0834 201.167 63.9181 201.167 62.4792C201.167 61.0404 198.367 59.8751 194.917 59.8751ZM202.055 61.7078C204.009 61.3562 205.333 60.6661 205.333 59.8751V58.4851C204.178 59.3022 202.192 59.7416 200.102 59.8458C201.063 60.3113 201.769 60.9363 202.055 61.7078Z" fill="white"/>
<circle cx="23.9999" cy="44.9999" r="9.16667" fill="white"/>
<path d="M30.023 47.0136L30.2751 47.8286C29.8157 48.0359 29.3396 48.1396 28.8466 48.1396C28.1464 48.1396 27.5834 47.9351 27.1577 47.5261C26.7319 47.1172 26.519 46.5654 26.519 45.8708C26.519 45.1594 26.7235 44.6048 27.1324 44.2071C27.547 43.8037 28.1184 43.6021 28.8466 43.6021C29.3396 43.6021 29.8157 43.7057 30.2751 43.913L30.023 44.7448C29.6701 44.5432 29.2948 44.4423 28.897 44.4423C28.4993 44.4423 28.1884 44.5656 27.9643 44.8121C27.7458 45.0585 27.6366 45.4114 27.6366 45.8708C27.6366 46.3189 27.7515 46.6719 27.9811 46.9296C28.2164 47.1872 28.5217 47.3161 28.897 47.3161C29.3004 47.3161 29.6757 47.2152 30.023 47.0136Z" fill="#79AFEF"/>
<path d="M24.2299 43.8541H25.734V44.6692H24.2299V46.459C24.2299 46.7895 24.2719 47.0135 24.3559 47.1312C24.44 47.2432 24.5912 47.2992 24.8097 47.2992C25.0786 47.2992 25.3307 47.2516 25.5659 47.1564L25.7088 47.9715C25.3615 48.0835 24.9862 48.1395 24.5828 48.1395C24.0674 48.1395 23.6921 48.0247 23.4568 47.795C23.2272 47.5653 23.1123 47.1844 23.1123 46.6522V44.6692H22.2048V43.8541H23.1123V42.2576H24.2299V43.8541Z" fill="#79AFEF"/>
<path d="M18.503 45.5179H20.5533C20.5477 45.1538 20.4553 44.8765 20.276 44.686C20.1023 44.4899 19.8559 44.3919 19.5365 44.3919C19.2284 44.3919 18.982 44.4899 18.7971 44.686C18.6178 44.8821 18.5198 45.1594 18.503 45.5179ZM18.503 46.2657C18.531 46.5962 18.6571 46.8595 18.8811 47.0556C19.1108 47.2461 19.3993 47.3413 19.7466 47.3413C20.1612 47.3413 20.5729 47.2377 20.9818 47.0304L21.2339 47.8034C20.7297 48.0275 20.1976 48.1396 19.6374 48.1396C18.9764 48.1396 18.4386 47.9351 18.024 47.5261C17.6151 47.1172 17.4106 46.5654 17.4106 45.8708C17.4106 45.165 17.6011 44.6104 17.982 44.2071C18.363 43.8037 18.8783 43.6021 19.5281 43.6021C20.178 43.6021 20.6821 43.7953 21.0406 44.1818C21.4048 44.5684 21.5868 45.123 21.5868 45.8456C21.5868 45.9856 21.5784 46.1257 21.5616 46.2657H18.503Z" fill="#79AFEF"/>
<path d="M14.3608 95.74H18.5608C18.5608 98.33 17.3708 100.61 14.3908 102.07L13.9508 101.4C16.3608 100.25 17.5608 98.53 17.7308 96.4H14.3608V95.74ZM20.3708 94.77H21.1908V103.74H20.3708V94.77ZM24.24 98.76V100.91C25.83 100.91 26.95 100.84 28.27 100.62L28.35 101.28C26.97 101.52 25.81 101.58 24.12 101.58H23.42V95.58H27.6V96.25H24.24V98.1H27.4V98.76H24.24ZM31.41 98.37V99.06H29.93V103.73H29.11V94.77H29.93V98.37H31.41Z" fill="black" fill-opacity="0.87"/>
<path d="M68.9716 96.66V96.34H63.4716V95.67H69.7916V96.66C69.7916 97.8 69.7916 98.97 69.4716 100.65L68.6616 100.55C68.9716 98.95 68.9716 97.77 68.9716 96.66ZM67.6516 101.81H70.7416V102.48H62.6316V101.81H64.6216V98.84H65.4316V101.81H66.8416V98.84H67.6516V101.81ZM75.8808 103.11C77.3308 103.11 78.1308 102.83 78.1308 102.29C78.1308 101.76 77.3308 101.47 75.8808 101.47C74.4408 101.47 73.6308 101.76 73.6308 102.29C73.6308 102.83 74.4408 103.11 75.8808 103.11ZM75.8808 100.86C77.8308 100.86 78.9508 101.36 78.9508 102.29C78.9508 103.23 77.8308 103.73 75.8808 103.73C73.9308 103.73 72.8108 103.23 72.8108 102.29C72.8108 101.36 73.9308 100.86 75.8808 100.86ZM76.2908 99.52H79.9408V100.18H71.8208V99.52H75.4708V98.64H72.8908V95.03H78.9408V95.67H73.7108V96.5H78.7008V97.12H73.7108V98H78.9908V98.64H76.2908V99.52ZM88.75 98.19L88.41 98.85C87.02 98.61 85.67 97.83 85.09 96.75C84.53 97.84 83.18 98.61 81.78 98.85L81.45 98.19C83.08 97.95 84.66 96.87 84.66 95.59V95.09H85.52V95.59C85.52 96.84 87.12 97.95 88.75 98.19ZM89.14 99.82L89.15 100.5H85.48V103.75H84.66V100.5H81.04V99.82H89.14ZM95.4192 98.7L95.5092 99.36C94.2792 99.61 93.2192 99.67 91.3392 99.67H90.6392V95.55H94.6092V96.21H91.4592V99C93.2292 99 94.2492 98.93 95.4192 98.7ZM92.4292 100.61V102.87H97.5892V103.54H91.6092V100.61H92.4292ZM97.1892 97.43H98.5192V98.11H97.1892V101.26H96.3692V94.77H97.1892V97.43Z" fill="black" fill-opacity="0.87"/>
<path d="M126.892 97.68V95.85H122.472V97.68H126.892ZM127.702 95.19V98.34H121.672V95.19H127.702ZM122.472 100.98V102.87H127.852V103.54H121.652V100.98H122.472ZM120.612 99.36H128.762V100.02H125.162V101.83H124.342V100.02H120.612V99.36ZM135.241 95.86V96.51H129.881V95.86H132.161V94.78H132.981V95.86H135.241ZM131.231 98.7C131.231 99.32 131.771 99.72 132.571 99.72C133.371 99.72 133.911 99.32 133.911 98.7C133.911 98.08 133.371 97.67 132.571 97.67C131.771 97.67 131.231 98.08 131.231 98.7ZM132.981 100.34V101.29C133.791 101.25 134.621 101.19 135.391 101.07L135.441 101.68C133.521 102.02 131.411 102.04 129.841 102.04L129.731 101.35C130.451 101.35 131.291 101.35 132.161 101.32V100.34C131.131 100.21 130.451 99.59 130.451 98.7C130.451 97.69 131.321 97.04 132.571 97.04C133.821 97.04 134.691 97.69 134.691 98.7C134.691 99.59 134.011 100.21 132.981 100.34ZM138.141 98.58V99.27H136.741V103.74H135.921V94.77H136.741V98.58H138.141ZM144.67 97.85V100.02H143.89V94.95H144.67V97.18H145.81V94.78H146.6V100.31H145.81V97.85H144.67ZM143.52 98.98L143.08 99.61C142.24 99.27 141.63 98.63 141.31 97.87C140.99 98.71 140.35 99.47 139.48 99.86L139.04 99.22C140.21 98.7 140.91 97.54 140.91 96.54V95.33H141.7V96.54C141.7 97.53 142.37 98.54 143.52 98.98ZM143.64 103.1C145 103.1 145.83 102.74 145.83 102.12C145.83 101.5 145 101.15 143.64 101.15C142.3 101.15 141.46 101.5 141.46 102.12C141.46 102.74 142.3 103.1 143.64 103.1ZM143.64 100.51C145.49 100.51 146.64 101.1 146.64 102.12C146.64 103.14 145.49 103.73 143.64 103.73C141.8 103.73 140.65 103.14 140.65 102.12C140.65 101.1 141.8 100.51 143.64 100.51ZM153.559 95.45V96.04H148.409V95.45H150.579V94.68H151.399V95.45H153.559ZM149.669 97.5C149.669 97.9 150.179 98.15 150.989 98.15C151.789 98.15 152.299 97.9 152.299 97.5C152.299 97.1 151.789 96.86 150.989 96.86C150.179 96.86 149.669 97.1 149.669 97.5ZM153.829 98.99L153.879 99.51C151.969 99.85 149.849 99.86 148.279 99.86L148.189 99.25C148.889 99.25 149.719 99.25 150.579 99.22V98.67C149.539 98.59 148.889 98.17 148.889 97.5C148.889 96.76 149.709 96.32 150.989 96.32C152.249 96.32 153.079 96.76 153.079 97.5C153.079 98.16 152.429 98.58 151.399 98.67V99.2C152.219 99.16 153.059 99.09 153.829 98.99ZM150.199 102.29V103.05H155.519V103.64H149.399V101.74H154.369V101.04H149.369V100.46H155.179V102.29H150.199ZM155.179 97.06H156.499V97.75H155.179V100.07H154.359V94.77H155.179V97.06Z" fill="black" fill-opacity="0.87"/>
<path d="M189.631 101.09V102.96H194.141V101.09H189.631ZM188.831 103.62V100.43H194.951V103.62H188.831ZM194.681 98.55H195.971V99.21H187.821V98.55H193.851C194.111 97.43 194.111 96.61 194.111 95.91H188.861V95.25H194.921V95.91C194.921 96.61 194.921 97.43 194.681 98.55ZM201.08 95.59C199.66 95.59 198.77 95.97 198.77 96.63C198.77 97.28 199.66 97.67 201.08 97.67C202.5 97.67 203.39 97.28 203.39 96.63C203.39 95.97 202.5 95.59 201.08 95.59ZM201.08 98.3C199.14 98.3 197.93 97.69 197.93 96.63C197.93 95.57 199.14 94.95 201.08 94.95C203.03 94.95 204.23 95.57 204.23 96.63C204.23 97.69 203.03 98.3 201.08 98.3ZM202.3 100.65V99.63H199.89V100.64C200.25 100.58 200.64 100.55 201.08 100.55C201.53 100.55 201.94 100.58 202.3 100.65ZM203.32 102.14C203.32 101.54 202.48 101.18 201.08 101.18C199.67 101.18 198.84 101.54 198.84 102.14C198.84 102.76 199.67 103.1 201.08 103.1C202.48 103.1 203.32 102.76 203.32 102.14ZM205.14 99.63H203.12V100.87C203.78 101.13 204.15 101.57 204.15 102.14C204.15 103.17 203 103.74 201.08 103.74C199.16 103.74 198.01 103.17 198.01 102.14C198.01 101.56 198.4 101.11 199.07 100.86V99.63H197.03V98.97H205.14V99.63Z" fill="black" fill-opacity="0.87"/>
<path d="M251.241 98.99L250.831 99.64C249.801 99.27 248.991 98.5 248.591 97.51C248.201 98.57 247.381 99.4 246.331 99.8L245.911 99.15C247.261 98.66 248.171 97.41 248.171 96.07V95.19H248.991V96.07C248.991 97.36 249.911 98.53 251.241 98.99ZM247.191 101.29V100.63H253.191V103.75H252.371V101.29H247.191ZM252.371 94.78H253.191V100.17H252.371V94.78ZM261.55 94.77H262.37V103.75H261.55V94.77ZM255.54 95.53H256.35V97.9H258.95V95.53H259.76V101.58H255.54V95.53ZM256.35 98.55V100.91H258.95V98.55H256.35Z" fill="black" fill-opacity="0.87"/>
</svg>
