<svg width="24" height="24" viewBox="0 0 24 24" fill="none" xmlns="http://www.w3.org/2000/svg">
<g clip-path="url(#clip0_599_1887)">
<path d="M12 0C5.37 0 0 5.37 0 12C0 18.63 5.37 24 12 24C18.63 24 24 18.63 24 12C24 5.37 18.63 0 12 0ZM12 18.73C8.28 18.73 5.27 15.72 5.27 12C5.27 8.28 8.28 5.27 12 5.27C15.72 5.27 18.73 8.28 18.73 12C18.73 15.72 15.72 18.73 12 18.73Z" fill="#CFEFE9"/>
<path d="M23.1 16.55C23.21 16.26 23.27 15.96 23.27 15.64C23.27 14.19 22.09 13.01 20.64 13.01C19.57 13.01 18.66 13.65 18.24 14.56H18.23C17.22 17 14.82 18.73 12.01 18.73C8.29 18.73 5.28 15.72 5.28 12C5.28 8.28 8.29 5.27 12.01 5.27C12.16 5.27 12.3 5.28 12.45 5.29V5.27C12.53 5.27 12.6 5.29 12.67 5.29C14.12 5.29 15.3 4.11 15.3 2.66C15.3 1.21 14.18 0.1 12.78 0.04C12.52 0 12.26 0 12 0C5.42 0 0 5.42 0 12C0 18.58 5.42 24 12 24C16.78 24 21.11 21.14 23.01 16.76C23.04 16.71 23.06 16.65 23.08 16.6C23.08 16.58 23.1 16.57 23.1 16.55Z" fill="#38D6B8"/>
</g>
<defs>
<clipPath id="clip0_599_1887">
<rect width="24" height="24" fill="white"/>
</clipPath>
</defs>
</svg>
