<svg width="245" height="253" viewBox="0 0 245 253" fill="none" xmlns="http://www.w3.org/2000/svg">
<path d="M122.49 1.72266C55.6438 1.72266 1.46094 55.912 1.46094 122.752C1.46094 189.591 55.6503 243.781 122.49 243.781C189.33 243.781 243.519 189.591 243.519 122.752C243.519 55.912 189.336 1.72266 122.49 1.72266ZM122.49 195.642C82.2375 195.642 49.5998 163.011 49.5998 122.752C49.5998 82.4927 82.231 49.8615 122.49 49.8615C162.749 49.8615 195.38 82.4992 195.38 122.752C195.38 163.004 162.749 195.642 122.49 195.642Z" fill="#59EACE"/>
<path d="M122.49 245.242C54.9456 245.242 0 190.29 0 122.752C0 55.2138 54.9521 0.261719 122.49 0.261719C190.028 0.261719 244.98 55.2138 244.98 122.752C244.98 190.29 190.034 245.242 122.49 245.242ZM122.49 3.17707C56.5552 3.17707 2.91535 56.8169 2.91535 122.752C2.91535 188.686 56.5552 242.326 122.49 242.326C188.425 242.326 242.065 188.686 242.065 122.752C242.065 56.8169 188.425 3.17707 122.49 3.17707ZM122.49 197.096C81.4941 197.096 48.1453 163.741 48.1453 122.752C48.1453 81.7623 81.5005 48.407 122.49 48.407C163.479 48.407 196.835 81.7623 196.835 122.752C196.835 163.741 163.486 197.096 122.49 197.096ZM122.49 51.3224C83.1037 51.3224 51.0607 83.3654 51.0607 122.752C51.0607 162.138 83.1037 194.181 122.49 194.181C161.876 194.181 193.919 162.138 193.919 122.752C193.919 83.3654 161.883 51.3224 122.49 51.3224Z" fill="#59EACE"/>
<path d="M121.883 242.811C109.581 242.313 99.7169 232.152 99.7105 219.728C99.704 207.006 110.047 196.631 122.768 196.599H123.725V196.573C163.855 195.467 196.344 162.545 196.344 122.752C196.344 82.9711 163.855 50.0554 123.725 48.95V48.9306L122.768 48.8983C110.06 48.866 99.7169 38.5039 99.7105 25.8017C99.704 13.2418 109.769 2.98314 122.258 2.67932L122.801 2.69871C188.839 3.32574 242.569 57.1789 242.569 122.745C242.569 188.292 188.852 242.145 122.833 242.785L121.883 242.811Z" fill="white"/>
<path d="M121.895 3.65545L122.794 3.66191C188.309 4.28248 241.612 57.709 241.612 122.752C241.612 187.782 188.322 241.202 122.82 241.835L122.07 241.855C110.208 241.454 100.674 231.68 100.667 219.721C100.661 207.53 110.577 197.581 122.768 197.555L124.675 197.542V197.497C164.889 195.901 197.294 162.752 197.294 122.752C197.294 82.7642 164.889 49.6223 124.675 48.0257V47.9481L122.768 47.9416C110.59 47.9093 100.674 37.9803 100.667 25.8018C100.661 19.8806 102.962 14.3149 107.144 10.1326C111.113 6.16355 116.323 3.8817 121.895 3.65545ZM122.813 1.72266C109.517 1.72912 98.7472 12.5114 98.7537 25.8082C98.7601 39.0792 109.504 49.8292 122.762 49.8615V49.8938C162.497 50.495 195.38 82.8741 195.38 122.758C195.38 162.636 162.497 195.041 122.762 195.642V195.648C109.491 195.681 98.7407 206.457 98.7537 219.734C98.7601 233.024 109.536 243.794 122.826 243.794C122.833 243.794 122.833 243.794 122.839 243.794V243.761C189.13 243.115 243.526 189.204 243.526 122.765C243.526 56.3128 189.117 2.38847 122.813 1.76144V1.72266Z" fill="#59EACE"/>
<path d="M119.568 251.169C139.396 251.169 155.47 237.118 155.47 219.786C155.47 202.453 139.396 188.402 119.568 188.402C99.7397 188.402 83.6658 202.453 83.6658 219.786C83.6658 237.118 99.7397 251.169 119.568 251.169Z" fill="white"/>
<path d="M119.568 252.624C98.9667 252.624 82.2051 237.892 82.2051 219.786C82.2051 201.68 98.9667 186.948 119.568 186.948C140.169 186.948 156.931 201.68 156.931 219.786C156.931 237.892 140.169 252.624 119.568 252.624ZM119.568 189.863C100.576 189.863 85.1204 203.283 85.1204 219.786C85.1204 236.289 100.57 249.709 119.568 249.709C138.566 249.709 154.016 236.289 154.016 219.786C154.016 203.283 138.56 189.863 119.568 189.863Z" fill="#59EACE"/>
<path d="M133.718 219.03C133.718 221.396 131.799 223.309 129.439 223.309C127.073 223.309 125.16 221.389 125.16 219.03C125.16 216.664 126.349 211.68 129.439 211.68C132.529 211.686 133.718 216.664 133.718 219.03Z" fill="#627677"/>
<path d="M133.156 236.27C133.169 228.506 124.985 223.257 118.864 223.212C118.857 223.212 118.857 223.212 118.851 223.212C118.844 223.212 118.838 223.212 118.831 223.212C118.825 223.212 118.818 223.212 118.812 223.212C118.806 223.212 118.806 223.212 118.799 223.212C112.677 223.225 103.537 228.351 103.524 236.108C103.518 240.374 106.11 243.438 109.613 244.027C112.897 244.576 114.61 242.663 117.985 242.663C121.359 242.663 123.996 244.802 127.325 244.059C129.969 243.477 133.15 240.517 133.156 236.27Z" fill="#55D8BF"/>
<path d="M123.195 237.019C124.155 237.019 124.934 235.882 124.934 234.479C124.934 233.076 124.155 231.938 123.195 231.938C122.235 231.938 121.456 233.076 121.456 234.479C121.456 235.882 122.235 237.019 123.195 237.019Z" fill="#627677"/>
<path d="M113.111 237.019C114.071 237.019 114.85 235.882 114.85 234.479C114.85 233.076 114.071 231.938 113.111 231.938C112.15 231.938 111.372 233.076 111.372 234.479C111.372 235.882 112.15 237.019 113.111 237.019Z" fill="#627677"/>
<path d="M141.689 211.932C141.327 211.932 140.991 211.712 140.849 211.356C140.836 211.331 139.788 208.687 136.699 206.728C135.179 205.765 133.854 205.422 132.768 205.72C131.547 206.056 130.984 207.135 130.984 207.148C130.764 207.588 130.221 207.769 129.788 207.549C129.349 207.329 129.161 206.799 129.381 206.36C129.413 206.282 130.267 204.569 132.264 204C133.861 203.548 135.684 203.955 137.668 205.209C141.288 207.504 142.484 210.587 142.536 210.716C142.71 211.175 142.478 211.693 142.019 211.867C141.902 211.912 141.799 211.932 141.689 211.932Z" fill="#627677"/>
<path d="M104.345 219.03C104.345 221.396 106.265 223.309 108.625 223.309C110.984 223.309 112.904 221.389 112.904 219.03C112.904 216.67 111.714 211.68 108.625 211.68C105.535 211.686 104.345 216.664 104.345 219.03Z" fill="#627677"/>
<path d="M96.3685 211.932C96.2586 211.932 96.1551 211.912 96.0517 211.874C95.5928 211.699 95.3601 211.182 95.5346 210.723C95.5863 210.594 96.7822 207.517 100.396 205.216C102.38 203.961 104.203 203.554 105.8 204.007C107.797 204.576 108.644 206.289 108.683 206.366C108.903 206.812 108.715 207.349 108.269 207.562C107.836 207.782 107.299 207.594 107.08 207.155C107.073 207.142 106.517 206.062 105.296 205.726C104.203 205.422 102.891 205.765 101.365 206.735C98.2754 208.693 97.2282 211.337 97.2153 211.363C97.0731 211.712 96.7305 211.932 96.3685 211.932Z" fill="#627677"/>
<path d="M91.0094 186.469C85.4632 190.051 89.1736 203.878 92.9293 205.468C97.7063 207.485 99.8007 202.488 101.604 201.188C103.408 199.889 108.482 199.411 108.411 194.323C108.333 189.243 96.5557 182.895 91.0094 186.469Z" fill="#55D8BF"/>
<path d="M148.121 186.469C153.667 190.051 149.956 203.877 146.201 205.468C141.424 207.484 139.329 202.488 137.526 201.188C135.722 199.889 130.648 199.411 130.719 194.323C130.79 189.236 142.574 182.895 148.121 186.469Z" fill="#55D8BF"/>
<path d="M144.482 191.078C147.255 192.869 145.4 199.786 143.525 200.574C141.14 201.583 140.092 199.088 139.187 198.435C138.282 197.782 135.749 197.543 135.787 195.002C135.82 192.462 141.702 189.288 144.482 191.078Z" fill="white"/>
<path d="M94.6555 191.078C91.8824 192.869 93.7376 199.786 95.6122 200.574C97.9975 201.583 99.0447 199.088 99.9497 198.435C100.848 197.788 103.389 197.543 103.35 195.002C103.318 192.462 97.4287 189.288 94.6555 191.078Z" fill="white"/>
<path d="M128.573 217.594C129.344 217.594 129.97 216.969 129.97 216.198C129.97 215.427 129.344 214.802 128.573 214.802C127.802 214.802 127.177 215.427 127.177 216.198C127.177 216.969 127.802 217.594 128.573 217.594Z" fill="white"/>
<path d="M109.646 217.594C110.417 217.594 111.042 216.969 111.042 216.198C111.042 215.427 110.417 214.802 109.646 214.802C108.875 214.802 108.25 215.427 108.25 216.198C108.25 216.969 108.875 217.594 109.646 217.594Z" fill="white"/>
<path d="M93.9831 32.7701C94.1188 33.882 95.625 34.8257 95.625 34.8257C95.625 34.8257 94.8299 36.0798 95.0884 37.1076C95.347 38.1354 96.5429 38.7236 97.7517 38.4134L106.116 37.308C107.687 36.9072 107.467 36.0669 107.125 34.7288L105.683 29.092C105.341 27.7539 103.796 26.9911 102.225 27.3919L95.6896 30.3525C94.4873 30.6563 93.8473 31.6647 93.9831 32.7701Z" fill="white"/>
<path d="M95.1464 14.4118C95.3597 13.3129 96.9305 12.479 96.9305 12.479C96.9305 12.479 96.2259 11.1733 96.5556 10.1649C96.8917 9.15644 98.1199 8.6587 99.3029 9.04655L107.564 10.7402C109.103 11.2508 108.825 12.0718 108.392 13.384L106.556 18.9109C106.123 20.2231 104.519 20.8696 102.987 20.3589L96.6784 16.9523C95.5019 16.5579 94.9331 15.5107 95.1464 14.4118Z" fill="white"/>
<path d="M126.895 25.5132C126.478 25.6025 125.898 25.6273 125.372 25.5628C121.83 25.2106 118.447 19.0197 120.918 16.708C122.049 15.8647 124.454 15.2744 125.313 17.0354C125.953 18.732 124.891 19.5058 124.028 19.3967C123.165 19.2875 122.634 17.968 121.855 18.479C121.448 18.7171 121.2 19.2131 121.513 19.734C122.803 21.9316 125.958 21.6042 126.965 19.3322C127.882 16.4352 125.997 14.312 123.388 14.3418C113.407 14.1483 119.767 29.566 127.401 27.3189C128.577 27.0807 128.076 25.2701 126.895 25.5132Z" fill="#59EACE"/>
</svg>
