<svg width="101" height="50" viewBox="0 0 101 50" fill="none" xmlns="http://www.w3.org/2000/svg">
<path d="M36.1316 33.1428C37.239 27.9416 35.7417 23.2152 32.7871 22.5861C29.8326 21.957 26.5397 25.6634 25.4322 30.8646C24.3248 36.0658 25.8221 40.7922 28.7767 41.4213C31.7312 42.0504 35.0241 38.3439 36.1316 33.1428Z" fill="#59EACE"/>
<path d="M33.0924 20.8897C34.657 20.8897 35.9253 19.6213 35.9253 18.0568C35.9253 16.4922 34.657 15.2239 33.0924 15.2239C31.5278 15.2239 30.2595 16.4922 30.2595 18.0568C30.2595 19.6213 31.5278 20.8897 33.0924 20.8897Z" fill="#59EACE"/>
<path d="M56.2576 23.8245C53.8328 21.2349 50.5526 20.4737 47.5078 20.8033C47.5078 20.8033 47.4372 20.8033 47.4058 20.8111C47.3744 20.8111 47.3352 20.8111 47.3038 20.819C44.259 21.125 41.2064 22.5532 39.3701 25.5902C35.5092 31.9779 43.0819 48.732 46.7466 36.1056C46.9428 35.2424 47.4058 33.5474 48.732 33.4061C50.0582 33.2727 50.8586 34.8265 51.2275 35.6348C57.4269 47.2332 61.3663 29.2706 56.2655 23.8167L56.2576 23.8245Z" fill="#59EACE"/>
<path d="M77.1473 26.3593C75.3502 23.7619 72.5566 22.6632 69.8414 22.5612C69.8414 22.5612 69.7786 22.5612 69.7472 22.5612C69.7158 22.5612 69.6844 22.5612 69.653 22.5612C66.9379 22.4357 64.0579 23.291 62.0489 25.7237C57.8114 30.848 62.2922 46.582 67.1654 35.9488C67.4479 35.2112 68.0836 33.7829 69.2607 33.83C70.4456 33.885 70.9479 35.3603 71.1676 36.1215C75.1148 47.1391 80.9218 31.8446 77.1473 26.375V26.3593Z" fill="#59EACE"/>
<path d="M99.9597 33.21C100.627 30.6517 100.023 29.0509 99.4026 27.8267C98.4373 25.9119 96.6717 24.5543 94.5608 24.3503C91.9633 24.0992 89.562 25.653 88.3535 28.0856C86.4623 24.7505 83.8256 22.7965 81.9501 23.5656C79.7136 24.4759 79.3997 28.8939 81.2516 33.4375C82.4052 36.2704 84.1316 38.4755 85.8031 39.5192C85.552 41.1829 81.5341 42.6739 81.5341 42.6739C78.8111 43.2703 78.8739 45.9933 80.7023 47.6805C82.7505 49.5796 87.0116 50.1917 92.0339 45.083C94.2076 42.8701 95.8713 40.971 97.0013 39.2446C98.4923 36.9767 99.3006 35.7604 99.9676 33.2021L99.9597 33.21Z" fill="#59EACE"/>
<path d="M18.4569 23.1497C19.736 22.5611 25.1664 20.2226 27.2538 17.8213C29.6708 15.0434 30.7851 11.6455 29.9925 8.34956C28.4937 2.06383 20.6071 -1.4204 12.3909 0.549286C4.92805 2.34633 -0.235512 8.03567 0.00775642 13.7642C-0.00793829 18.7865 1.06715 23.2831 4.66124 30.7695C8.26318 38.248 17.0365 42.4699 19.3986 40.5551C21.7606 38.6404 18.3313 34.1438 16.2518 29.5296C14.1722 24.9153 18.4569 23.1418 18.4569 23.1418V23.1497ZM11.5434 13.5602C11.0804 12.438 12.3046 10.8686 14.2821 10.0446C16.2596 9.22062 18.245 9.46389 18.708 10.5782C19.171 11.7004 17.9468 13.2699 15.9693 14.0938C13.9917 14.9178 12.0064 14.6745 11.5434 13.5602Z" fill="#59EACE"/>
</svg>
