<svg width="296" height="130" viewBox="0 0 296 130" fill="none" xmlns="http://www.w3.org/2000/svg">
<path d="M5.743 123.778C5.743 124.3 5.701 124.765 5.617 125.173C5.539 125.581 5.413 125.929 5.239 126.217C5.071 126.499 4.846 126.715 4.564 126.865C4.288 127.015 3.955 127.09 3.565 127.09C3.073 127.09 2.668 126.958 2.35 126.694C2.032 126.43 1.795 126.052 1.639 125.56C1.483 125.062 1.405 124.468 1.405 123.778C1.405 123.082 1.474 122.488 1.612 121.996C1.756 121.504 1.987 121.129 2.305 120.871C2.623 120.607 3.043 120.475 3.565 120.475C4.057 120.475 4.462 120.607 4.78 120.871C5.104 121.129 5.344 121.504 5.5 121.996C5.662 122.488 5.743 123.082 5.743 123.778ZM2.359 123.778C2.359 124.336 2.398 124.801 2.476 125.173C2.554 125.545 2.68 125.824 2.854 126.01C3.034 126.196 3.271 126.289 3.565 126.289C3.859 126.289 4.093 126.199 4.267 126.019C4.447 125.833 4.576 125.554 4.654 125.182C4.738 124.804 4.78 124.336 4.78 123.778C4.78 123.22 4.738 122.758 4.654 122.392C4.576 122.02 4.447 121.741 4.267 121.555C4.093 121.369 3.859 121.276 3.565 121.276C3.271 121.276 3.034 121.369 2.854 121.555C2.68 121.741 2.554 122.02 2.476 122.392C2.398 122.758 2.359 123.22 2.359 123.778Z" fill="white"/>
<path d="M23.8607 123.778C23.8607 124.3 23.8187 124.765 23.7347 125.173C23.6567 125.581 23.5307 125.929 23.3567 126.217C23.1887 126.499 22.9637 126.715 22.6817 126.865C22.4057 127.015 22.0727 127.09 21.6827 127.09C21.1907 127.09 20.7857 126.958 20.4677 126.694C20.1497 126.43 19.9127 126.052 19.7567 125.56C19.6007 125.062 19.5227 124.468 19.5227 123.778C19.5227 123.082 19.5917 122.488 19.7297 121.996C19.8737 121.504 20.1047 121.129 20.4227 120.871C20.7407 120.607 21.1607 120.475 21.6827 120.475C22.1747 120.475 22.5797 120.607 22.8977 120.871C23.2217 121.129 23.4617 121.504 23.6177 121.996C23.7797 122.488 23.8607 123.082 23.8607 123.778ZM20.4767 123.778C20.4767 124.336 20.5157 124.801 20.5937 125.173C20.6717 125.545 20.7977 125.824 20.9717 126.01C21.1517 126.196 21.3887 126.289 21.6827 126.289C21.9767 126.289 22.2107 126.199 22.3847 126.019C22.5647 125.833 22.6937 125.554 22.7717 125.182C22.8557 124.804 22.8977 124.336 22.8977 123.778C22.8977 123.22 22.8557 122.758 22.7717 122.392C22.6937 122.02 22.5647 121.741 22.3847 121.555C22.2107 121.369 21.9767 121.276 21.6827 121.276C21.3887 121.276 21.1517 121.369 20.9717 121.555C20.7977 121.741 20.6717 122.02 20.5937 122.392C20.5157 122.758 20.4767 123.22 20.4767 123.778ZM24.8801 126.469C24.8801 126.235 24.9401 126.07 25.0601 125.974C25.1801 125.878 25.3241 125.83 25.4921 125.83C25.6661 125.83 25.8131 125.878 25.9331 125.974C26.0531 126.07 26.1131 126.235 26.1131 126.469C26.1131 126.703 26.0531 126.871 25.9331 126.973C25.8131 127.075 25.6661 127.126 25.4921 127.126C25.3241 127.126 25.1801 127.075 25.0601 126.973C24.9401 126.871 24.8801 126.703 24.8801 126.469ZM30.077 127H29.132V122.734C29.132 122.584 29.132 122.446 29.132 122.32C29.138 122.188 29.144 122.062 29.15 121.942C29.156 121.816 29.162 121.696 29.168 121.582C29.09 121.66 29.009 121.735 28.925 121.807C28.841 121.879 28.745 121.963 28.637 122.059L27.935 122.626L27.449 122.014L29.285 120.574H30.077V127Z" fill="white"/>
<path d="M53.0369 123.778C53.0369 124.3 52.9949 124.765 52.9109 125.173C52.8329 125.581 52.7069 125.929 52.5329 126.217C52.3649 126.499 52.1399 126.715 51.8579 126.865C51.5819 127.015 51.2489 127.09 50.8589 127.09C50.3669 127.09 49.9619 126.958 49.6439 126.694C49.3259 126.43 49.0889 126.052 48.9329 125.56C48.7769 125.062 48.6989 124.468 48.6989 123.778C48.6989 123.082 48.7679 122.488 48.9059 121.996C49.0499 121.504 49.2809 121.129 49.5989 120.871C49.9169 120.607 50.3369 120.475 50.8589 120.475C51.3509 120.475 51.7559 120.607 52.0739 120.871C52.3979 121.129 52.6379 121.504 52.7939 121.996C52.9559 122.488 53.0369 123.082 53.0369 123.778ZM49.6529 123.778C49.6529 124.336 49.6919 124.801 49.7699 125.173C49.8479 125.545 49.9739 125.824 50.1479 126.01C50.3279 126.196 50.5649 126.289 50.8589 126.289C51.1529 126.289 51.3869 126.199 51.5609 126.019C51.7409 125.833 51.8699 125.554 51.9479 125.182C52.0319 124.804 52.0739 124.336 52.0739 123.778C52.0739 123.22 52.0319 122.758 51.9479 122.392C51.8699 122.02 51.7409 121.741 51.5609 121.555C51.3869 121.369 51.1529 121.276 50.8589 121.276C50.5649 121.276 50.3279 121.369 50.1479 121.555C49.9739 121.741 49.8479 122.02 49.7699 122.392C49.6919 122.758 49.6529 123.22 49.6529 123.778ZM54.0563 126.469C54.0563 126.235 54.1163 126.07 54.2363 125.974C54.3563 125.878 54.5003 125.83 54.6683 125.83C54.8423 125.83 54.9893 125.878 55.1093 125.974C55.2293 126.07 55.2893 126.235 55.2893 126.469C55.2893 126.703 55.2293 126.871 55.1093 126.973C54.9893 127.075 54.8423 127.126 54.6683 127.126C54.5003 127.126 54.3563 127.075 54.2363 126.973C54.1163 126.871 54.0563 126.703 54.0563 126.469ZM60.6393 127H56.3193V126.262L57.9753 124.579C58.2993 124.249 58.5693 123.964 58.7853 123.724C59.0013 123.478 59.1633 123.244 59.2713 123.022C59.3793 122.794 59.4333 122.548 59.4333 122.284C59.4333 121.954 59.3373 121.708 59.1453 121.546C58.9533 121.378 58.7043 121.294 58.3983 121.294C58.1043 121.294 57.8403 121.351 57.6063 121.465C57.3723 121.573 57.1293 121.726 56.8773 121.924L56.3643 121.285C56.5383 121.135 56.7243 121 56.9223 120.88C57.1263 120.76 57.3513 120.664 57.5973 120.592C57.8493 120.52 58.1253 120.484 58.4253 120.484C58.8333 120.484 59.1843 120.556 59.4783 120.7C59.7723 120.838 59.9973 121.036 60.1533 121.294C60.3153 121.552 60.3963 121.855 60.3963 122.203C60.3963 122.461 60.3573 122.704 60.2793 122.932C60.2013 123.154 60.0873 123.373 59.9373 123.589C59.7933 123.805 59.6163 124.024 59.4063 124.246C59.1963 124.468 58.9653 124.702 58.7133 124.948L57.5163 126.109V126.154H60.6393V127Z" fill="white"/>
<path d="M82.2137 123.778C82.2137 124.3 82.1717 124.765 82.0877 125.173C82.0097 125.581 81.8837 125.929 81.7097 126.217C81.5417 126.499 81.3167 126.715 81.0347 126.865C80.7587 127.015 80.4257 127.09 80.0357 127.09C79.5437 127.09 79.1387 126.958 78.8207 126.694C78.5027 126.43 78.2657 126.052 78.1097 125.56C77.9537 125.062 77.8757 124.468 77.8757 123.778C77.8757 123.082 77.9447 122.488 78.0827 121.996C78.2267 121.504 78.4577 121.129 78.7757 120.871C79.0937 120.607 79.5137 120.475 80.0357 120.475C80.5277 120.475 80.9327 120.607 81.2507 120.871C81.5747 121.129 81.8147 121.504 81.9707 121.996C82.1327 122.488 82.2137 123.082 82.2137 123.778ZM78.8297 123.778C78.8297 124.336 78.8687 124.801 78.9467 125.173C79.0247 125.545 79.1507 125.824 79.3247 126.01C79.5047 126.196 79.7417 126.289 80.0357 126.289C80.3297 126.289 80.5637 126.199 80.7377 126.019C80.9177 125.833 81.0467 125.554 81.1247 125.182C81.2087 124.804 81.2507 124.336 81.2507 123.778C81.2507 123.22 81.2087 122.758 81.1247 122.392C81.0467 122.02 80.9177 121.741 80.7377 121.555C80.5637 121.369 80.3297 121.276 80.0357 121.276C79.7417 121.276 79.5047 121.369 79.3247 121.555C79.1507 121.741 79.0247 122.02 78.9467 122.392C78.8687 122.758 78.8297 123.22 78.8297 123.778ZM83.2331 126.469C83.2331 126.235 83.2931 126.07 83.4131 125.974C83.5331 125.878 83.6771 125.83 83.8451 125.83C84.0191 125.83 84.1661 125.878 84.2861 125.974C84.4061 126.07 84.4661 126.235 84.4661 126.469C84.4661 126.703 84.4061 126.871 84.2861 126.973C84.1661 127.075 84.0191 127.126 83.8451 127.126C83.6771 127.126 83.5331 127.075 83.4131 126.973C83.2931 126.871 83.2331 126.703 83.2331 126.469ZM89.564 122.059C89.564 122.347 89.507 122.599 89.393 122.815C89.285 123.025 89.129 123.196 88.925 123.328C88.721 123.46 88.487 123.556 88.223 123.616V123.652C88.739 123.712 89.123 123.874 89.375 124.138C89.633 124.396 89.762 124.738 89.762 125.164C89.762 125.536 89.672 125.869 89.492 126.163C89.318 126.451 89.045 126.679 88.673 126.847C88.307 127.009 87.836 127.09 87.26 127.09C86.918 127.09 86.6 127.063 86.306 127.009C86.012 126.955 85.733 126.865 85.469 126.739V125.875C85.739 126.013 86.027 126.118 86.333 126.19C86.645 126.262 86.942 126.298 87.224 126.298C87.77 126.298 88.163 126.196 88.403 125.992C88.643 125.782 88.763 125.491 88.763 125.119C88.763 124.879 88.7 124.684 88.574 124.534C88.448 124.378 88.256 124.264 87.998 124.192C87.74 124.114 87.419 124.075 87.035 124.075H86.45V123.292H87.044C87.41 123.292 87.707 123.247 87.935 123.157C88.163 123.061 88.331 122.929 88.439 122.761C88.547 122.593 88.601 122.401 88.601 122.185C88.601 121.897 88.505 121.675 88.313 121.519C88.127 121.357 87.857 121.276 87.503 121.276C87.287 121.276 87.086 121.3 86.9 121.348C86.72 121.396 86.555 121.459 86.405 121.537C86.255 121.615 86.108 121.702 85.964 121.798L85.496 121.141C85.658 121.021 85.838 120.91 86.036 120.808C86.24 120.706 86.465 120.628 86.711 120.574C86.963 120.514 87.236 120.484 87.53 120.484C88.196 120.484 88.7 120.631 89.042 120.925C89.39 121.213 89.564 121.591 89.564 122.059Z" fill="white"/>
<path d="M111.39 123.778C111.39 124.3 111.348 124.765 111.264 125.173C111.186 125.581 111.06 125.929 110.886 126.217C110.718 126.499 110.493 126.715 110.211 126.865C109.935 127.015 109.602 127.09 109.212 127.09C108.72 127.09 108.315 126.958 107.997 126.694C107.679 126.43 107.442 126.052 107.286 125.56C107.13 125.062 107.052 124.468 107.052 123.778C107.052 123.082 107.121 122.488 107.259 121.996C107.403 121.504 107.634 121.129 107.952 120.871C108.27 120.607 108.69 120.475 109.212 120.475C109.704 120.475 110.109 120.607 110.427 120.871C110.751 121.129 110.991 121.504 111.147 121.996C111.309 122.488 111.39 123.082 111.39 123.778ZM108.006 123.778C108.006 124.336 108.045 124.801 108.123 125.173C108.201 125.545 108.327 125.824 108.501 126.01C108.681 126.196 108.918 126.289 109.212 126.289C109.506 126.289 109.74 126.199 109.914 126.019C110.094 125.833 110.223 125.554 110.301 125.182C110.385 124.804 110.427 124.336 110.427 123.778C110.427 123.22 110.385 122.758 110.301 122.392C110.223 122.02 110.094 121.741 109.914 121.555C109.74 121.369 109.506 121.276 109.212 121.276C108.918 121.276 108.681 121.369 108.501 121.555C108.327 121.741 108.201 122.02 108.123 122.392C108.045 122.758 108.006 123.22 108.006 123.778ZM112.409 126.469C112.409 126.235 112.469 126.07 112.589 125.974C112.709 125.878 112.853 125.83 113.021 125.83C113.195 125.83 113.342 125.878 113.462 125.974C113.582 126.07 113.642 126.235 113.642 126.469C113.642 126.703 113.582 126.871 113.462 126.973C113.342 127.075 113.195 127.126 113.021 127.126C112.853 127.126 112.709 127.075 112.589 126.973C112.469 126.871 112.409 126.703 112.409 126.469ZM119.235 125.578H118.344V127H117.417V125.578H114.438V124.822L117.399 120.547H118.344V124.768H119.235V125.578ZM117.417 123.022C117.417 122.878 117.417 122.74 117.417 122.608C117.423 122.476 117.429 122.35 117.435 122.23C117.441 122.104 117.444 121.99 117.444 121.888C117.45 121.78 117.456 121.684 117.462 121.6H117.426C117.378 121.72 117.318 121.843 117.246 121.969C117.18 122.095 117.111 122.206 117.039 122.302L115.338 124.768H117.417V123.022Z" fill="white"/>
<path d="M140.566 123.778C140.566 124.3 140.524 124.765 140.44 125.173C140.362 125.581 140.236 125.929 140.062 126.217C139.894 126.499 139.669 126.715 139.387 126.865C139.111 127.015 138.778 127.09 138.388 127.09C137.896 127.09 137.491 126.958 137.173 126.694C136.855 126.43 136.618 126.052 136.462 125.56C136.306 125.062 136.228 124.468 136.228 123.778C136.228 123.082 136.297 122.488 136.435 121.996C136.579 121.504 136.81 121.129 137.128 120.871C137.446 120.607 137.866 120.475 138.388 120.475C138.88 120.475 139.285 120.607 139.603 120.871C139.927 121.129 140.167 121.504 140.323 121.996C140.485 122.488 140.566 123.082 140.566 123.778ZM137.182 123.778C137.182 124.336 137.221 124.801 137.299 125.173C137.377 125.545 137.503 125.824 137.677 126.01C137.857 126.196 138.094 126.289 138.388 126.289C138.682 126.289 138.916 126.199 139.09 126.019C139.27 125.833 139.399 125.554 139.477 125.182C139.561 124.804 139.603 124.336 139.603 123.778C139.603 123.22 139.561 122.758 139.477 122.392C139.399 122.02 139.27 121.741 139.09 121.555C138.916 121.369 138.682 121.276 138.388 121.276C138.094 121.276 137.857 121.369 137.677 121.555C137.503 121.741 137.377 122.02 137.299 122.392C137.221 122.758 137.182 123.22 137.182 123.778ZM141.586 126.469C141.586 126.235 141.646 126.07 141.766 125.974C141.886 125.878 142.03 125.83 142.198 125.83C142.372 125.83 142.519 125.878 142.639 125.974C142.759 126.07 142.819 126.235 142.819 126.469C142.819 126.703 142.759 126.871 142.639 126.973C142.519 127.075 142.372 127.126 142.198 127.126C142.03 127.126 141.886 127.075 141.766 126.973C141.646 126.871 141.586 126.703 141.586 126.469ZM145.973 123.013C146.399 123.013 146.771 123.088 147.089 123.238C147.407 123.388 147.653 123.604 147.827 123.886C148.007 124.168 148.097 124.513 148.097 124.921C148.097 125.371 148.001 125.758 147.809 126.082C147.617 126.406 147.338 126.655 146.972 126.829C146.612 127.003 146.171 127.09 145.649 127.09C145.319 127.09 145.007 127.06 144.713 127C144.419 126.94 144.17 126.853 143.966 126.739V125.866C144.182 125.992 144.443 126.094 144.749 126.172C145.061 126.25 145.358 126.289 145.64 126.289C145.946 126.289 146.207 126.244 146.423 126.154C146.645 126.058 146.816 125.917 146.936 125.731C147.062 125.539 147.125 125.299 147.125 125.011C147.125 124.621 147.002 124.324 146.756 124.12C146.516 123.91 146.135 123.805 145.613 123.805C145.445 123.805 145.256 123.82 145.046 123.85C144.842 123.88 144.677 123.91 144.551 123.94L144.11 123.679L144.353 120.574H147.656V121.42H145.181L145.037 123.103C145.139 123.085 145.268 123.067 145.424 123.049C145.58 123.025 145.763 123.013 145.973 123.013Z" fill="white"/>
<path d="M169.743 123.778C169.743 124.3 169.701 124.765 169.617 125.173C169.539 125.581 169.413 125.929 169.239 126.217C169.071 126.499 168.846 126.715 168.564 126.865C168.288 127.015 167.955 127.09 167.565 127.09C167.073 127.09 166.668 126.958 166.35 126.694C166.032 126.43 165.795 126.052 165.639 125.56C165.483 125.062 165.405 124.468 165.405 123.778C165.405 123.082 165.474 122.488 165.612 121.996C165.756 121.504 165.987 121.129 166.305 120.871C166.623 120.607 167.043 120.475 167.565 120.475C168.057 120.475 168.462 120.607 168.78 120.871C169.104 121.129 169.344 121.504 169.5 121.996C169.662 122.488 169.743 123.082 169.743 123.778ZM166.359 123.778C166.359 124.336 166.398 124.801 166.476 125.173C166.554 125.545 166.68 125.824 166.854 126.01C167.034 126.196 167.271 126.289 167.565 126.289C167.859 126.289 168.093 126.199 168.267 126.019C168.447 125.833 168.576 125.554 168.654 125.182C168.738 124.804 168.78 124.336 168.78 123.778C168.78 123.22 168.738 122.758 168.654 122.392C168.576 122.02 168.447 121.741 168.267 121.555C168.093 121.369 167.859 121.276 167.565 121.276C167.271 121.276 167.034 121.369 166.854 121.555C166.68 121.741 166.554 122.02 166.476 122.392C166.398 122.758 166.359 123.22 166.359 123.778ZM170.762 126.469C170.762 126.235 170.822 126.07 170.942 125.974C171.062 125.878 171.206 125.83 171.374 125.83C171.548 125.83 171.695 125.878 171.815 125.974C171.935 126.07 171.995 126.235 171.995 126.469C171.995 126.703 171.935 126.871 171.815 126.973C171.695 127.075 171.548 127.126 171.374 127.126C171.206 127.126 171.062 127.075 170.942 126.973C170.822 126.871 170.762 126.703 170.762 126.469ZM173.052 124.264C173.052 123.892 173.076 123.526 173.124 123.166C173.178 122.806 173.268 122.467 173.394 122.149C173.526 121.825 173.706 121.54 173.934 121.294C174.162 121.042 174.45 120.847 174.798 120.709C175.152 120.565 175.578 120.493 176.076 120.493C176.202 120.493 176.343 120.499 176.499 120.511C176.661 120.517 176.793 120.535 176.895 120.565V121.366C176.781 121.33 176.655 121.303 176.517 121.285C176.385 121.267 176.253 121.258 176.121 121.258C175.707 121.258 175.365 121.321 175.095 121.447C174.825 121.573 174.612 121.747 174.456 121.969C174.3 122.191 174.186 122.449 174.114 122.743C174.042 123.031 173.997 123.346 173.979 123.688H174.033C174.123 123.544 174.234 123.415 174.366 123.301C174.498 123.187 174.66 123.097 174.852 123.031C175.044 122.965 175.266 122.932 175.518 122.932C175.89 122.932 176.214 123.01 176.49 123.166C176.772 123.322 176.988 123.547 177.138 123.841C177.294 124.135 177.372 124.492 177.372 124.912C177.372 125.362 177.285 125.752 177.111 126.082C176.943 126.406 176.703 126.655 176.391 126.829C176.085 127.003 175.716 127.09 175.284 127.09C174.972 127.09 174.681 127.033 174.411 126.919C174.141 126.805 173.904 126.631 173.7 126.397C173.496 126.163 173.337 125.869 173.223 125.515C173.109 125.155 173.052 124.738 173.052 124.264ZM175.275 126.298C175.617 126.298 175.896 126.187 176.112 125.965C176.328 125.737 176.436 125.386 176.436 124.912C176.436 124.534 176.34 124.234 176.148 124.012C175.962 123.79 175.68 123.679 175.302 123.679C175.044 123.679 174.819 123.733 174.627 123.841C174.435 123.949 174.285 124.087 174.177 124.255C174.069 124.423 174.015 124.594 174.015 124.768C174.015 124.954 174.042 125.137 174.096 125.317C174.15 125.497 174.228 125.662 174.33 125.812C174.438 125.962 174.57 126.082 174.726 126.172C174.882 126.256 175.065 126.298 175.275 126.298Z" fill="white"/>
<path d="M198.919 123.778C198.919 124.3 198.877 124.765 198.793 125.173C198.715 125.581 198.589 125.929 198.415 126.217C198.247 126.499 198.022 126.715 197.74 126.865C197.464 127.015 197.131 127.09 196.741 127.09C196.249 127.09 195.844 126.958 195.526 126.694C195.208 126.43 194.971 126.052 194.815 125.56C194.659 125.062 194.581 124.468 194.581 123.778C194.581 123.082 194.65 122.488 194.788 121.996C194.932 121.504 195.163 121.129 195.481 120.871C195.799 120.607 196.219 120.475 196.741 120.475C197.233 120.475 197.638 120.607 197.956 120.871C198.28 121.129 198.52 121.504 198.676 121.996C198.838 122.488 198.919 123.082 198.919 123.778ZM195.535 123.778C195.535 124.336 195.574 124.801 195.652 125.173C195.73 125.545 195.856 125.824 196.03 126.01C196.21 126.196 196.447 126.289 196.741 126.289C197.035 126.289 197.269 126.199 197.443 126.019C197.623 125.833 197.752 125.554 197.83 125.182C197.914 124.804 197.956 124.336 197.956 123.778C197.956 123.22 197.914 122.758 197.83 122.392C197.752 122.02 197.623 121.741 197.443 121.555C197.269 121.369 197.035 121.276 196.741 121.276C196.447 121.276 196.21 121.369 196.03 121.555C195.856 121.741 195.73 122.02 195.652 122.392C195.574 122.758 195.535 123.22 195.535 123.778ZM199.939 126.469C199.939 126.235 199.999 126.07 200.119 125.974C200.239 125.878 200.383 125.83 200.551 125.83C200.725 125.83 200.872 125.878 200.992 125.974C201.112 126.07 201.172 126.235 201.172 126.469C201.172 126.703 201.112 126.871 200.992 126.973C200.872 127.075 200.725 127.126 200.551 127.126C200.383 127.126 200.239 127.075 200.119 126.973C199.999 126.871 199.939 126.703 199.939 126.469ZM202.949 127L205.514 121.42H202.139V120.574H206.54V121.258L203.984 127H202.949Z" fill="white"/>
<path d="M228.096 123.778C228.096 124.3 228.054 124.765 227.97 125.173C227.892 125.581 227.766 125.929 227.592 126.217C227.424 126.499 227.199 126.715 226.917 126.865C226.641 127.015 226.308 127.09 225.918 127.09C225.426 127.09 225.021 126.958 224.703 126.694C224.385 126.43 224.148 126.052 223.992 125.56C223.836 125.062 223.758 124.468 223.758 123.778C223.758 123.082 223.827 122.488 223.965 121.996C224.109 121.504 224.34 121.129 224.658 120.871C224.976 120.607 225.396 120.475 225.918 120.475C226.41 120.475 226.815 120.607 227.133 120.871C227.457 121.129 227.697 121.504 227.853 121.996C228.015 122.488 228.096 123.082 228.096 123.778ZM224.712 123.778C224.712 124.336 224.751 124.801 224.829 125.173C224.907 125.545 225.033 125.824 225.207 126.01C225.387 126.196 225.624 126.289 225.918 126.289C226.212 126.289 226.446 126.199 226.62 126.019C226.8 125.833 226.929 125.554 227.007 125.182C227.091 124.804 227.133 124.336 227.133 123.778C227.133 123.22 227.091 122.758 227.007 122.392C226.929 122.02 226.8 121.741 226.62 121.555C226.446 121.369 226.212 121.276 225.918 121.276C225.624 121.276 225.387 121.369 225.207 121.555C225.033 121.741 224.907 122.02 224.829 122.392C224.751 122.758 224.712 123.22 224.712 123.778ZM229.115 126.469C229.115 126.235 229.175 126.07 229.295 125.974C229.415 125.878 229.559 125.83 229.727 125.83C229.901 125.83 230.048 125.878 230.168 125.974C230.288 126.07 230.348 126.235 230.348 126.469C230.348 126.703 230.288 126.871 230.168 126.973C230.048 127.075 229.901 127.126 229.727 127.126C229.559 127.126 229.415 127.075 229.295 126.973C229.175 126.871 229.115 126.703 229.115 126.469ZM233.529 120.484C233.907 120.484 234.243 120.544 234.537 120.664C234.831 120.778 235.062 120.949 235.23 121.177C235.404 121.405 235.491 121.69 235.491 122.032C235.491 122.29 235.437 122.515 235.329 122.707C235.221 122.899 235.077 123.07 234.897 123.22C234.717 123.364 234.516 123.49 234.294 123.598C234.546 123.724 234.777 123.868 234.987 124.03C235.203 124.186 235.374 124.369 235.5 124.579C235.632 124.789 235.698 125.041 235.698 125.335C235.698 125.695 235.608 126.007 235.428 126.271C235.254 126.529 235.005 126.73 234.681 126.874C234.357 127.018 233.979 127.09 233.547 127.09C233.085 127.09 232.689 127.021 232.359 126.883C232.035 126.745 231.789 126.55 231.621 126.298C231.453 126.04 231.369 125.728 231.369 125.362C231.369 125.068 231.429 124.813 231.549 124.597C231.669 124.381 231.828 124.195 232.026 124.039C232.224 123.883 232.44 123.751 232.674 123.643C232.47 123.523 232.284 123.388 232.116 123.238C231.948 123.082 231.816 122.905 231.72 122.707C231.624 122.509 231.576 122.281 231.576 122.023C231.576 121.687 231.663 121.408 231.837 121.186C232.011 120.958 232.245 120.784 232.539 120.664C232.839 120.544 233.169 120.484 233.529 120.484ZM232.287 125.344C232.287 125.638 232.389 125.881 232.593 126.073C232.797 126.259 233.109 126.352 233.529 126.352C233.805 126.352 234.033 126.31 234.213 126.226C234.399 126.136 234.54 126.016 234.636 125.866C234.732 125.71 234.78 125.533 234.78 125.335C234.78 125.137 234.726 124.963 234.618 124.813C234.516 124.663 234.372 124.531 234.186 124.417C234.006 124.297 233.796 124.189 233.556 124.093L233.421 124.039C233.175 124.141 232.968 124.255 232.8 124.381C232.632 124.507 232.503 124.648 232.413 124.804C232.329 124.96 232.287 125.14 232.287 125.344ZM233.52 121.231C233.226 121.231 232.98 121.303 232.782 121.447C232.59 121.591 232.494 121.801 232.494 122.077C232.494 122.275 232.542 122.443 232.638 122.581C232.734 122.719 232.863 122.839 233.025 122.941C233.187 123.037 233.364 123.13 233.556 123.22C233.748 123.136 233.919 123.046 234.069 122.95C234.219 122.848 234.339 122.728 234.429 122.59C234.519 122.446 234.564 122.275 234.564 122.077C234.564 121.801 234.468 121.591 234.276 121.447C234.084 121.303 233.832 121.231 233.52 121.231Z" fill="white"/>
<path d="M257.272 123.778C257.272 124.3 257.23 124.765 257.146 125.173C257.068 125.581 256.942 125.929 256.768 126.217C256.6 126.499 256.375 126.715 256.093 126.865C255.817 127.015 255.484 127.09 255.094 127.09C254.602 127.09 254.197 126.958 253.879 126.694C253.561 126.43 253.324 126.052 253.168 125.56C253.012 125.062 252.934 124.468 252.934 123.778C252.934 123.082 253.003 122.488 253.141 121.996C253.285 121.504 253.516 121.129 253.834 120.871C254.152 120.607 254.572 120.475 255.094 120.475C255.586 120.475 255.991 120.607 256.309 120.871C256.633 121.129 256.873 121.504 257.029 121.996C257.191 122.488 257.272 123.082 257.272 123.778ZM253.888 123.778C253.888 124.336 253.927 124.801 254.005 125.173C254.083 125.545 254.209 125.824 254.383 126.01C254.563 126.196 254.8 126.289 255.094 126.289C255.388 126.289 255.622 126.199 255.796 126.019C255.976 125.833 256.105 125.554 256.183 125.182C256.267 124.804 256.309 124.336 256.309 123.778C256.309 123.22 256.267 122.758 256.183 122.392C256.105 122.02 255.976 121.741 255.796 121.555C255.622 121.369 255.388 121.276 255.094 121.276C254.8 121.276 254.563 121.369 254.383 121.555C254.209 121.741 254.083 122.02 254.005 122.392C253.927 122.758 253.888 123.22 253.888 123.778ZM258.292 126.469C258.292 126.235 258.352 126.07 258.472 125.974C258.592 125.878 258.736 125.83 258.904 125.83C259.078 125.83 259.225 125.878 259.345 125.974C259.465 126.07 259.525 126.235 259.525 126.469C259.525 126.703 259.465 126.871 259.345 126.973C259.225 127.075 259.078 127.126 258.904 127.126C258.736 127.126 258.592 127.075 258.472 126.973C258.352 126.871 258.292 126.703 258.292 126.469ZM264.866 123.319C264.866 123.685 264.839 124.051 264.785 124.417C264.731 124.777 264.641 125.119 264.515 125.443C264.389 125.761 264.209 126.046 263.975 126.298C263.747 126.544 263.456 126.739 263.102 126.883C262.754 127.021 262.331 127.09 261.833 127.09C261.713 127.09 261.572 127.084 261.41 127.072C261.248 127.06 261.113 127.039 261.005 127.009V126.208C261.119 126.244 261.245 126.271 261.383 126.289C261.527 126.307 261.665 126.316 261.797 126.316C262.211 126.316 262.55 126.256 262.814 126.136C263.084 126.01 263.297 125.836 263.453 125.614C263.615 125.392 263.732 125.134 263.804 124.84C263.876 124.546 263.918 124.234 263.93 123.904H263.876C263.786 124.042 263.675 124.168 263.543 124.282C263.411 124.396 263.249 124.486 263.057 124.552C262.871 124.618 262.646 124.651 262.382 124.651C262.016 124.651 261.692 124.573 261.41 124.417C261.134 124.261 260.921 124.039 260.771 123.751C260.621 123.457 260.546 123.1 260.546 122.68C260.546 122.224 260.63 121.834 260.798 121.51C260.972 121.18 261.215 120.928 261.527 120.754C261.845 120.58 262.214 120.493 262.634 120.493C262.946 120.493 263.237 120.55 263.507 120.664C263.777 120.778 264.014 120.952 264.218 121.186C264.422 121.42 264.581 121.714 264.695 122.068C264.809 122.422 264.866 122.839 264.866 123.319ZM262.643 121.276C262.301 121.276 262.022 121.39 261.806 121.618C261.59 121.846 261.482 122.194 261.482 122.662C261.482 123.046 261.572 123.349 261.752 123.571C261.938 123.793 262.223 123.904 262.607 123.904C262.871 123.904 263.099 123.85 263.291 123.742C263.483 123.628 263.633 123.49 263.741 123.328C263.849 123.16 263.903 122.986 263.903 122.806C263.903 122.626 263.876 122.446 263.822 122.266C263.768 122.086 263.69 121.921 263.588 121.771C263.486 121.621 263.354 121.501 263.192 121.411C263.036 121.321 262.853 121.276 262.643 121.276Z" fill="white"/>
<path d="M285.054 127H284.109V122.734C284.109 122.584 284.109 122.446 284.109 122.32C284.115 122.188 284.121 122.062 284.127 121.942C284.133 121.816 284.139 121.696 284.145 121.582C284.067 121.66 283.986 121.735 283.902 121.807C283.818 121.879 283.722 121.963 283.614 122.059L282.912 122.626L282.426 122.014L284.262 120.574H285.054V127ZM287.468 126.469C287.468 126.235 287.528 126.07 287.648 125.974C287.768 125.878 287.912 125.83 288.08 125.83C288.254 125.83 288.401 125.878 288.521 125.974C288.641 126.07 288.701 126.235 288.701 126.469C288.701 126.703 288.641 126.871 288.521 126.973C288.401 127.075 288.254 127.126 288.08 127.126C287.912 127.126 287.768 127.075 287.648 126.973C287.528 126.871 287.468 126.703 287.468 126.469ZM294.06 123.778C294.06 124.3 294.018 124.765 293.934 125.173C293.856 125.581 293.73 125.929 293.556 126.217C293.388 126.499 293.163 126.715 292.881 126.865C292.605 127.015 292.272 127.09 291.882 127.09C291.39 127.09 290.985 126.958 290.667 126.694C290.349 126.43 290.112 126.052 289.956 125.56C289.8 125.062 289.722 124.468 289.722 123.778C289.722 123.082 289.791 122.488 289.929 121.996C290.073 121.504 290.304 121.129 290.622 120.871C290.94 120.607 291.36 120.475 291.882 120.475C292.374 120.475 292.779 120.607 293.097 120.871C293.421 121.129 293.661 121.504 293.817 121.996C293.979 122.488 294.06 123.082 294.06 123.778ZM290.676 123.778C290.676 124.336 290.715 124.801 290.793 125.173C290.871 125.545 290.997 125.824 291.171 126.01C291.351 126.196 291.588 126.289 291.882 126.289C292.176 126.289 292.41 126.199 292.584 126.019C292.764 125.833 292.893 125.554 292.971 125.182C293.055 124.804 293.097 124.336 293.097 123.778C293.097 123.22 293.055 122.758 292.971 122.392C292.893 122.02 292.764 121.741 292.584 121.555C292.41 121.369 292.176 121.276 291.882 121.276C291.588 121.276 291.351 121.369 291.171 121.555C290.997 121.741 290.871 122.02 290.793 122.392C290.715 122.758 290.676 123.22 290.676 123.778Z" fill="white"/>
<path d="M294.176 112H1V1H9.94118" stroke="white" stroke-width="2" stroke-linecap="round" stroke-linejoin="round"/>
<path d="M135.823 17L135.823 47L1.00015 47L1.00015 17L135.823 17Z" fill="white"/>
<path d="M135.824 17C137.678 17 139.513 17.388 141.226 18.1418C142.939 18.8956 144.495 20.0005 145.806 21.3934C147.117 22.7863 148.157 24.4399 148.867 26.2597C149.576 28.0796 149.941 30.0302 149.941 32C149.941 33.9698 149.576 35.9204 148.867 37.7403C148.157 39.5601 147.117 41.2137 145.806 42.6066C144.495 43.9995 142.939 45.1044 141.226 45.8582C139.513 46.612 137.678 47 135.824 47L135.824 32L135.824 17Z" fill="white"/>
<path fill-rule="evenodd" clip-rule="evenodd" d="M165.941 62.0334V62H165L0.999757 62L0.999756 92L165 92C165 92 165.001 92 165.001 92H165.941V91.9667C167.473 91.8579 168.98 91.4842 170.402 90.8582C172.115 90.1044 173.672 88.9995 174.983 87.6066C176.294 86.2137 177.333 84.5601 178.043 82.7403C178.752 80.9204 179.118 78.9698 179.118 77C179.118 75.0302 178.752 73.0796 178.043 71.2598C177.333 69.4399 176.294 67.7863 174.983 66.3934C173.672 65.0005 172.115 63.8956 170.402 63.1418C168.98 62.5158 167.473 62.1421 165.941 62.0334Z" fill="white"/>
<path d="M15.81 33.28V31.91H14.73V30.86H15.81V30.19H14.73V29.13H15.81V27.65H17.13V33.28H15.81ZM11.66 29.31V31.84C11.94 31.84 12.23 31.82 12.52 31.81V29.31H11.66ZM14.63 31.65L14.71 32.62C13 32.91 11.02 32.94 9.57 32.94L9.43 31.87C9.73 31.87 10.05 31.87 10.39 31.87V29.31H9.66V28.26H14.52V29.31H13.79V31.74C14.08 31.71 14.36 31.68 14.63 31.65ZM14.01 35.87C15.23 35.87 15.85 35.63 15.85 35.15C15.85 34.66 15.23 34.43 14.01 34.43C12.8 34.43 12.18 34.66 12.18 35.15C12.18 35.63 12.8 35.87 14.01 35.87ZM14.01 33.43C15.98 33.43 17.17 34.06 17.17 35.15C17.17 36.23 15.98 36.86 14.01 36.86C12.05 36.86 10.86 36.23 10.86 35.15C10.86 34.06 12.05 33.43 14.01 33.43ZM20.8192 33.69V35.65H26.2592V36.7H19.4992V33.69H20.8192ZM25.8192 31.48H26.9692V32.53H24.9092V34.53H23.6092V32.53H22.6892V34.53H21.3892V32.53H18.6292V31.48H24.4992C24.6792 30.54 24.6992 29.82 24.6992 29.13H19.6192V28.08H25.9992V28.87C25.9992 29.61 25.9992 30.44 25.8192 31.48Z" fill="black" fill-opacity="0.5"/>
<path d="M17.08 72.65V79.42H15.75V72.65H17.08ZM11.82 74.46V77.12C12.14 77.11 12.47 77.1 12.79 77.08V74.46H11.82ZM15.13 76.91L15.22 77.87C13.39 78.17 11.31 78.21 9.73 78.21L9.59 77.14C9.89 77.14 10.21 77.14 10.55 77.14V74.46H9.82V73.41H14.78V74.46H14.06V77.01C14.43 76.98 14.78 76.95 15.13 76.91ZM12.25 80.65H17.29V81.7H10.92V78.81H12.25V80.65ZM26.2792 72.65V79.42H24.9492V72.65H26.2792ZM21.0192 74.46V77.12C21.3392 77.11 21.6692 77.1 21.9892 77.08V74.46H21.0192ZM24.3292 76.91L24.4192 77.87C22.5892 78.17 20.5092 78.21 18.9292 78.21L18.7892 77.14C19.0892 77.14 19.4092 77.14 19.7492 77.14V74.46H19.0192V73.41H23.9792V74.46H23.2592V77.01C23.6292 76.98 23.9792 76.95 24.3292 76.91ZM21.4492 80.65H26.4892V81.7H20.1192V78.81H21.4492V80.65ZM34.1384 72.64H35.4584V81.88H34.1384V72.64ZM30.5084 73.29C31.8984 73.29 32.9284 74.55 32.9284 76.57C32.9284 78.6 31.8984 79.87 30.5084 79.87C29.1184 79.87 28.0884 78.6 28.0884 76.57C28.0884 74.55 29.1184 73.29 30.5084 73.29ZM30.5084 74.48C29.8284 74.48 29.3584 75.21 29.3584 76.57C29.3584 77.94 29.8284 78.67 30.5084 78.67C31.1884 78.67 31.6584 77.94 31.6584 76.57C31.6584 75.21 31.1884 74.48 30.5084 74.48ZM42.5977 75.9L42.7577 76.97C41.3477 77.27 39.9977 77.37 38.3477 77.37H37.5477V73.18H38.8577V76.28C40.2277 76.26 41.3877 76.17 42.5977 75.9ZM39.8477 79.23V80.72H43.3777V79.23H39.8477ZM38.5477 81.75V78.19H44.6677V81.75H38.5477ZM43.3477 72.64H44.6677V77.8H43.3477V72.64Z" fill="#38D6B8"/>
</svg>
