<svg width="58" height="58" viewBox="0 0 58 58" fill="none" xmlns="http://www.w3.org/2000/svg">
<g filter="url(#filter0_d_1031_5811)">
<circle cx="29" cy="29" r="25" fill="#38D6B8"/>
<circle cx="29" cy="29" r="24.5" stroke="#38D6B8"/>
</g>
<path d="M22 28L23.5 23.5H34.5L36 28M34.5 33C34.1022 33 33.7206 32.842 33.4393 32.5607C33.158 32.2794 33 31.8978 33 31.5C33 31.1022 33.158 30.7206 33.4393 30.4393C33.7206 30.158 34.1022 30 34.5 30C34.8978 30 35.2794 30.158 35.5607 30.4393C35.842 30.7206 36 31.1022 36 31.5C36 31.8978 35.842 32.2794 35.5607 32.5607C35.2794 32.842 34.8978 33 34.5 33ZM23.5 33C23.1022 33 22.7206 32.842 22.4393 32.5607C22.158 32.2794 22 31.8978 22 31.5C22 31.1022 22.158 30.7206 22.4393 30.4393C22.7206 30.158 23.1022 30 23.5 30C23.8978 30 24.2794 30.158 24.5607 30.4393C24.842 30.7206 25 31.1022 25 31.5C25 31.8978 24.842 32.2794 24.5607 32.5607C24.2794 32.842 23.8978 33 23.5 33ZM35.92 23C35.72 22.42 35.16 22 34.5 22H23.5C22.84 22 22.28 22.42 22.08 23L20 29V37C20 37.2652 20.1054 37.5196 20.2929 37.7071C20.4804 37.8946 20.7348 38 21 38H22C22.2652 38 22.5196 37.8946 22.7071 37.7071C22.8946 37.5196 23 37.2652 23 37V36H35V37C35 37.2652 35.1054 37.5196 35.2929 37.7071C35.4804 37.8946 35.7348 38 36 38H37C37.2652 38 37.5196 37.8946 37.7071 37.7071C37.8946 37.5196 38 37.2652 38 37V29L35.92 23Z" fill="white"/>
<defs>
<filter id="filter0_d_1031_5811" x="0" y="0" width="58" height="58" filterUnits="userSpaceOnUse" color-interpolation-filters="sRGB">
<feFlood flood-opacity="0" result="BackgroundImageFix"/>
<feColorMatrix in="SourceAlpha" type="matrix" values="0 0 0 0 0 0 0 0 0 0 0 0 0 0 0 0 0 0 127 0" result="hardAlpha"/>
<feMorphology radius="1" operator="dilate" in="SourceAlpha" result="effect1_dropShadow_1031_5811"/>
<feOffset/>
<feGaussianBlur stdDeviation="1.5"/>
<feComposite in2="hardAlpha" operator="out"/>
<feColorMatrix type="matrix" values="0 0 0 0 0 0 0 0 0 0 0 0 0 0 0 0 0 0 0.1 0"/>
<feBlend mode="normal" in2="BackgroundImageFix" result="effect1_dropShadow_1031_5811"/>
<feBlend mode="normal" in="SourceGraphic" in2="effect1_dropShadow_1031_5811" result="shape"/>
</filter>
</defs>
</svg>
