<svg width="58" height="58" viewBox="0 0 58 58" fill="none" xmlns="http://www.w3.org/2000/svg">
<g filter="url(#filter0_d_1031_5814)">
<circle cx="29" cy="29" r="25" fill="#38D6B8"/>
<circle cx="29" cy="29" r="24.5" stroke="#38D6B8"/>
</g>
<circle cx="29" cy="29" r="11" fill="white"/>
<path d="M36.2277 31.4163L36.5302 32.3944C35.979 32.6431 35.4076 32.7675 34.816 32.7675C33.9758 32.7675 33.3002 32.5221 32.7893 32.0314C32.2784 31.5407 32.0229 30.8786 32.0229 30.045C32.0229 29.1913 32.2683 28.5258 32.759 28.0485C33.2565 27.5645 33.9421 27.3225 34.816 27.3225C35.4076 27.3225 35.979 27.4469 36.5302 27.6956L36.2277 28.6938C35.8042 28.4518 35.3538 28.3308 34.8765 28.3308C34.3993 28.3308 34.0262 28.4787 33.7573 28.7745C33.4951 29.0703 33.364 29.4938 33.364 30.045C33.364 30.5828 33.5018 31.0063 33.7774 31.3155C34.0598 31.6247 34.4261 31.7793 34.8765 31.7793C35.3605 31.7793 35.8109 31.6583 36.2277 31.4163Z" fill="#38D6B8"/>
<path d="M29.2759 27.6251H31.0808V28.6031H29.2759V30.7509C29.2759 31.1475 29.3263 31.4164 29.4272 31.5576C29.528 31.692 29.7095 31.7592 29.9717 31.7592C30.2943 31.7592 30.5968 31.7021 30.8792 31.5878L31.0506 32.5659C30.6338 32.7003 30.1834 32.7676 29.6994 32.7676C29.081 32.7676 28.6306 32.6298 28.3482 32.3541C28.0726 32.0785 27.9348 31.6214 27.9348 30.9828V28.6031H26.8458V27.6251H27.9348V25.7092H29.2759V27.6251Z" fill="#38D6B8"/>
<path d="M22.4036 29.6215H24.8639C24.8572 29.1846 24.7463 28.8518 24.5312 28.6233C24.3228 28.388 24.027 28.2703 23.6439 28.2703C23.2741 28.2703 22.9784 28.388 22.7565 28.6233C22.5414 28.8585 22.4238 29.1913 22.4036 29.6215ZM22.4036 30.5189C22.4372 30.9155 22.5885 31.2315 22.8574 31.4668C23.133 31.6953 23.4792 31.8096 23.8959 31.8096C24.3934 31.8096 24.8875 31.6852 25.3782 31.4365L25.6807 32.3642C25.0757 32.6331 24.4371 32.7675 23.7649 32.7675C22.9716 32.7675 22.3263 32.5221 21.8289 32.0314C21.3381 31.5407 21.0928 30.8786 21.0928 30.045C21.0928 29.198 21.3213 28.5325 21.7784 28.0485C22.2356 27.5645 22.854 27.3225 23.6338 27.3225C24.4136 27.3225 25.0186 27.5544 25.4488 28.0183C25.8857 28.4821 26.1042 29.1476 26.1042 30.0148C26.1042 30.1828 26.0941 30.3509 26.0739 30.5189H22.4036Z" fill="#38D6B8"/>
<defs>
<filter id="filter0_d_1031_5814" x="0" y="0" width="58" height="58" filterUnits="userSpaceOnUse" color-interpolation-filters="sRGB">
<feFlood flood-opacity="0" result="BackgroundImageFix"/>
<feColorMatrix in="SourceAlpha" type="matrix" values="0 0 0 0 0 0 0 0 0 0 0 0 0 0 0 0 0 0 127 0" result="hardAlpha"/>
<feMorphology radius="1" operator="dilate" in="SourceAlpha" result="effect1_dropShadow_1031_5814"/>
<feOffset/>
<feGaussianBlur stdDeviation="1.5"/>
<feComposite in2="hardAlpha" operator="out"/>
<feColorMatrix type="matrix" values="0 0 0 0 0 0 0 0 0 0 0 0 0 0 0 0 0 0 0.1 0"/>
<feBlend mode="normal" in2="BackgroundImageFix" result="effect1_dropShadow_1031_5814"/>
<feBlend mode="normal" in="SourceGraphic" in2="effect1_dropShadow_1031_5814" result="shape"/>
</filter>
</defs>
</svg>
