<svg width="58" height="58" viewBox="0 0 58 58" fill="none" xmlns="http://www.w3.org/2000/svg">
<g filter="url(#filter0_d_1031_5812)">
<circle cx="29" cy="29" r="25" fill="#38D6B8"/>
<circle cx="29" cy="29" r="24.5" stroke="#38D6B8"/>
</g>
<path d="M23 38C24.6569 38 26 36.6569 26 35C26 33.3431 24.6569 32 23 32C21.3431 32 20 33.3431 20 35C20 36.6569 21.3431 38 23 38Z" fill="white" stroke="white" stroke-width="2" stroke-linecap="round" stroke-linejoin="round"/>
<path d="M35 37C36.6569 37 38 35.6569 38 34C38 32.3431 36.6569 31 35 31C33.3431 31 32 32.3431 32 34C32 35.6569 33.3431 37 35 37Z" fill="white" stroke="white" stroke-width="2" stroke-linecap="round" stroke-linejoin="round"/>
<path d="M38 20L26 23V27L38 24V20Z" fill="white"/>
<path d="M26 35V27M26 27V23L38 20V24M26 27L38 24M38 34V24" stroke="white" stroke-width="2" stroke-linecap="round" stroke-linejoin="round"/>
<defs>
<filter id="filter0_d_1031_5812" x="0" y="0" width="58" height="58" filterUnits="userSpaceOnUse" color-interpolation-filters="sRGB">
<feFlood flood-opacity="0" result="BackgroundImageFix"/>
<feColorMatrix in="SourceAlpha" type="matrix" values="0 0 0 0 0 0 0 0 0 0 0 0 0 0 0 0 0 0 127 0" result="hardAlpha"/>
<feMorphology radius="1" operator="dilate" in="SourceAlpha" result="effect1_dropShadow_1031_5812"/>
<feOffset/>
<feGaussianBlur stdDeviation="1.5"/>
<feComposite in2="hardAlpha" operator="out"/>
<feColorMatrix type="matrix" values="0 0 0 0 0 0 0 0 0 0 0 0 0 0 0 0 0 0 0.1 0"/>
<feBlend mode="normal" in2="BackgroundImageFix" result="effect1_dropShadow_1031_5812"/>
<feBlend mode="normal" in="SourceGraphic" in2="effect1_dropShadow_1031_5812" result="shape"/>
</filter>
</defs>
</svg>
