<svg width="58" height="58" viewBox="0 0 58 58" fill="none" xmlns="http://www.w3.org/2000/svg">
<g filter="url(#filter0_d_1031_5810)">
<circle cx="29" cy="29" r="25" fill="#38D6B8"/>
</g>
<path d="M35.06 40H36.72C37.56 40 38.25 39.35 38.35 38.53L40 22.05H35V18H33.03V22.05H28.06L28.36 24.39C30.07 24.86 31.67 25.71 32.63 26.65C34.07 28.07 35.06 29.54 35.06 31.94V40ZM18 39V38H33.03V39C33.03 39.54 32.58 40 32 40H19C18.45 40 18 39.54 18 39ZM33.03 32C33.03 24 18 24 18 32H33.03ZM18 34H33V36H18V34Z" fill="white"/>
<defs>
<filter id="filter0_d_1031_5810" x="0" y="0" width="58" height="58" filterUnits="userSpaceOnUse" color-interpolation-filters="sRGB">
<feFlood flood-opacity="0" result="BackgroundImageFix"/>
<feColorMatrix in="SourceAlpha" type="matrix" values="0 0 0 0 0 0 0 0 0 0 0 0 0 0 0 0 0 0 127 0" result="hardAlpha"/>
<feMorphology radius="1" operator="dilate" in="SourceAlpha" result="effect1_dropShadow_1031_5810"/>
<feOffset/>
<feGaussianBlur stdDeviation="1.5"/>
<feComposite in2="hardAlpha" operator="out"/>
<feColorMatrix type="matrix" values="0 0 0 0 0 0 0 0 0 0 0 0 0 0 0 0 0 0 0.1 0"/>
<feBlend mode="normal" in2="BackgroundImageFix" result="effect1_dropShadow_1031_5810"/>
<feBlend mode="normal" in="SourceGraphic" in2="effect1_dropShadow_1031_5810" result="shape"/>
</filter>
</defs>
</svg>
