<svg width="24" height="24" viewBox="0 0 24 24" fill="none" xmlns="http://www.w3.org/2000/svg">
<circle cx="12" cy="12" r="11" fill="#5EDCC4"/>
<path d="M19.2277 14.4163L19.5302 15.3944C18.979 15.6431 18.4076 15.7675 17.816 15.7675C16.9758 15.7675 16.3002 15.5221 15.7893 15.0314C15.2784 14.5407 15.0229 13.8786 15.0229 13.045C15.0229 12.1913 15.2683 11.5258 15.759 11.0485C16.2565 10.5645 16.9421 10.3225 17.816 10.3225C18.4076 10.3225 18.979 10.4469 19.5302 10.6956L19.2277 11.6938C18.8042 11.4518 18.3538 11.3308 17.8765 11.3308C17.3993 11.3308 17.0262 11.4787 16.7573 11.7745C16.4951 12.0703 16.364 12.4938 16.364 13.045C16.364 13.5828 16.5018 14.0063 16.7774 14.3155C17.0598 14.6247 17.4261 14.7793 17.8765 14.7793C18.3605 14.7793 18.8109 14.6583 19.2277 14.4163Z" fill="white"/>
<path d="M12.2759 10.6251H14.0808V11.6031H12.2759V13.7509C12.2759 14.1475 12.3263 14.4164 12.4272 14.5576C12.528 14.692 12.7095 14.7592 12.9717 14.7592C13.2943 14.7592 13.5968 14.7021 13.8792 14.5878L14.0506 15.5659C13.6338 15.7003 13.1834 15.7676 12.6994 15.7676C12.081 15.7676 11.6306 15.6298 11.3482 15.3541C11.0726 15.0785 10.9348 14.6214 10.9348 13.9828V11.6031H9.84583V10.6251H10.9348V8.70923H12.2759V10.6251Z" fill="white"/>
<path d="M5.40361 12.6215H7.86394C7.85722 12.1846 7.7463 11.8518 7.53119 11.6233C7.3228 11.388 7.02702 11.2703 6.64386 11.2703C6.27413 11.2703 5.97836 11.388 5.75652 11.6233C5.54141 11.8585 5.42377 12.1913 5.40361 12.6215ZM5.40361 13.5189C5.43722 13.9155 5.58847 14.2315 5.85736 14.4668C6.13297 14.6953 6.47916 14.8096 6.89594 14.8096C7.39338 14.8096 7.88747 14.6852 8.37819 14.4365L8.68069 15.3642C8.07569 15.6331 7.43708 15.7675 6.76486 15.7675C5.97163 15.7675 5.3263 15.5221 4.82886 15.0314C4.33813 14.5407 4.09277 13.8786 4.09277 13.045C4.09277 12.198 4.32133 11.5325 4.77844 11.0485C5.23555 10.5645 5.854 10.3225 6.63377 10.3225C7.41355 10.3225 8.01855 10.5544 8.44877 11.0183C8.88572 11.4821 9.10419 12.1476 9.10419 13.0148C9.10419 13.1828 9.09411 13.3509 9.07394 13.5189H5.40361Z" fill="white"/>
</svg>
